<mxfile host="app.diagrams.net" agent="Mozilla/5.0 (Macintosh; Intel Mac OS X 10_15_7) AppleWebKit/537.36 (KHTML, like Gecko) Chrome/126.0.0.0 Safari/537.36" version="24.7.6" pages="4">
  <diagram name="0" id="DtRPSw0Q84hj6Syw1lVk">
    <mxGraphModel dx="1659" dy="924" grid="0" gridSize="1" guides="1" tooltips="1" connect="1" arrows="1" fold="1" page="1" pageScale="1" pageWidth="3300" pageHeight="4681" background="#4D5766" math="0" shadow="0">
      <root>
        <mxCell id="0" />
        <mxCell id="1" parent="0" />
        <object label="" id="nBhBJxf1aetCIdoH2IMd-4">
          <mxCell style="shape=image;imageAlign=center;imageVerticalAlign=middle;labelPosition=left;align=right;verticalLabelPosition=top;spacingLeft=0;verticalAlign=bottom;spacingTop=0;spacing=0;editableCssRules=\.st[0-2]$;labelBackgroundColor=none;aspect=fixed;imageAspect=0;image=data:image/svg+xml,PHN2ZyB4bWxuczp4bGluaz0iaHR0cDovL3d3dy53My5vcmcvMTk5OS94bGluayIgeG1sbnM9Imh0dHA6Ly93d3cudzMub3JnLzIwMDAvc3ZnIiB4bWw6c3BhY2U9InByZXNlcnZlIiBzdHlsZT0iZW5hYmxlLWJhY2tncm91bmQ6bmV3IDAgMCAxMjAgMTIwOyIgdmlld0JveD0iMCAwIDEyMCAxMjAiIHk9IjBweCIgeD0iMHB4IiBpZD0iTGF5ZXJfMSIgdmVyc2lvbj0iMS4xIj4mI3hhOzxzdHlsZSB0eXBlPSJ0ZXh0L2NzcyI+LnN0MCB7IGZpbGw6IHJnYigxOCwgNjUsIDE0NSk7IH0gLnN0MSB7IGZpbGw6IG5vbmU7IHN0cm9rZTogcmdiKDI1NSwgMjU1LCAyNTUpOyBzdHJva2Utd2lkdGg6IDQ7IHN0cm9rZS1saW5lY2FwOiByb3VuZDsgc3Ryb2tlLWxpbmVqb2luOiByb3VuZDsgc3Ryb2tlLW1pdGVybGltaXQ6IDEwOyB9IC5zdDIgeyBmaWxsOiByZ2IoMjU1LCAyNTUsIDI1NSk7IH0gLnN0MyB7IGZpbGw6IG5vbmU7IHN0cm9rZTogcmdiKDI1NSwgMjU1LCAyNTUpOyBzdHJva2Utd2lkdGg6IDQ7IHN0cm9rZS1taXRlcmxpbWl0OiAxMDsgfSAuc3Q0IHsgZmlsbDogbm9uZTsgc3Ryb2tlOiByZ2IoMjU1LCAyNTUsIDI1NSk7IHN0cm9rZS13aWR0aDogNDsgc3Ryb2tlLWxpbmVjYXA6IHJvdW5kOyBzdHJva2UtbGluZWpvaW46IHJvdW5kOyB9IC5zdDUgeyBmaWxsOiByZ2IoMjU1LCAyNTUsIDI1NSk7IHN0cm9rZTogcmdiKDI1NSwgMjU1LCAyNTUpOyBzdHJva2Utd2lkdGg6IDQ7IHN0cm9rZS1saW5lY2FwOiByb3VuZDsgc3Ryb2tlLWxpbmVqb2luOiByb3VuZDsgc3Ryb2tlLW1pdGVybGltaXQ6IDEwOyB9IC5zdDYgeyBmaWxsOiBub25lOyBzdHJva2U6IHJnYigyNTUsIDI1NSwgMjU1KTsgc3Ryb2tlLXdpZHRoOiA0LjIzMzM7IHN0cm9rZS1saW5lY2FwOiByb3VuZDsgc3Ryb2tlLWxpbmVqb2luOiByb3VuZDsgc3Ryb2tlLW1pdGVybGltaXQ6IDEwOyB9IC5zdDcgeyBmaWxsOiBub25lOyBzdHJva2U6IHJnYigyNTUsIDI1NSwgMjU1KTsgc3Ryb2tlLXdpZHRoOiA0OyBzdHJva2UtbGluZWNhcDogcm91bmQ7IHN0cm9rZS1taXRlcmxpbWl0OiAxMDsgfSAuc3Q4IHsgZmlsbDogcmdiKDI1NSwgMjU1LCAyNTUpOyBzdHJva2U6IHJnYigyNTUsIDI1NSwgMjU1KTsgc3Ryb2tlLXdpZHRoOiA0OyBzdHJva2UtbWl0ZXJsaW1pdDogMTA7IH0gLnN0OSB7IGZpbGw6IHJnYigyNTUsIDI1NSwgMjU1KTsgc3Ryb2tlOiByZ2IoMjU1LCAyNTUsIDI1NSk7IHN0cm9rZS13aWR0aDogNDsgfSAuc3QxMCB7IGZpbGw6IG5vbmU7IHN0cm9rZTogcmdiKDI1NSwgMjU1LCAyNTUpOyBzdHJva2Utd2lkdGg6IDQ7IH0gLnN0MTEgeyBmaWxsOiByZ2IoMzgsIDM4LCAzOCk7IHN0cm9rZTogcmdiKDI1NSwgMjU1LCAyNTUpOyBzdHJva2Utd2lkdGg6IDQuMjMzMzsgfSAuc3QxMiB7IGZpbGwtcnVsZTogZXZlbm9kZDsgY2xpcC1ydWxlOiBldmVub2RkOyBmaWxsOiBub25lOyBzdHJva2U6IHJnYigyNTUsIDI1NSwgMjU1KTsgc3Ryb2tlLXdpZHRoOiA0OyBzdHJva2UtbWl0ZXJsaW1pdDogMTA7IH0gLnN0MTMgeyBmaWxsLXJ1bGU6IGV2ZW5vZGQ7IGNsaXAtcnVsZTogZXZlbm9kZDsgZmlsbDogcmdiKDI1NSwgMjU1LCAyNTUpOyBzdHJva2U6IHJnYigyNTUsIDI1NSwgMjU1KTsgc3Ryb2tlLXdpZHRoOiA0OyB9IC5zdDE0IHsgZmlsbDogbm9uZTsgc3Ryb2tlOiByZ2IoMjU1LCAyNTUsIDI1NSk7IHN0cm9rZS13aWR0aDogNC4yMzMzOyBzdHJva2UtbGluZWNhcDogcm91bmQ7IHN0cm9rZS1saW5lam9pbjogcm91bmQ7IH0gLnN0MTUgeyBmaWxsOiBub25lOyBzdHJva2U6IHJnYigyNTUsIDI1NSwgMjU1KTsgc3Ryb2tlLXdpZHRoOiA0OyBzdHJva2UtbGluZWNhcDogcm91bmQ7IH0gLnN0MTYgeyBmaWxsOiByZ2IoMjU1LCAyNTUsIDI1NSk7IHN0cm9rZTogcmdiKDI1NSwgMjU1LCAyNTUpOyBzdHJva2UtbWl0ZXJsaW1pdDogMTA7IH0gLnN0MTcgeyBmaWxsOiByZ2IoMzgsIDM4LCAzOCk7IHN0cm9rZTogcmdiKDI1NSwgMjU1LCAyNTUpOyBzdHJva2Utd2lkdGg6IDQ7IHN0cm9rZS1taXRlcmxpbWl0OiAxMDsgfSAuc3QxOCB7IGZpbGw6IHJnYigyNTUsIDI1NSwgMjU1KTsgc3Ryb2tlOiByZ2IoMjU1LCAyNTUsIDI1NSk7IHN0cm9rZS13aWR0aDogNDsgc3Ryb2tlLWxpbmVjYXA6IHJvdW5kOyBzdHJva2UtbGluZWpvaW46IHJvdW5kOyB9IDwvc3R5bGU+JiN4YTs8cmVjdCBoZWlnaHQ9IjEyMCIgd2lkdGg9IjEyMCIgY2xhc3M9InN0MCIvPiYjeGE7PGc+JiN4YTsJPHBhdGggZD0iTTEwMCw5MS4xSDIwSDEwMHogTTg5LjEsMzIuNWMwLTAuNSwwLTEtMC4yLTEuNGMtMC4yLTAuNS0wLjQtMC45LTAuOC0xLjJjLTAuMy0wLjMtMC44LTAuNi0xLjItMC44JiMxMDsmIzk7JiM5O2MtMC41LTAuMi0wLjktMC4yLTEuNC0wLjJIMzQuNmMtMC41LDAtMSwwLTEuNCwwLjJjLTAuNSwwLjItMC45LDAuNC0xLjIsMC44Yy0wLjMsMC4zLTAuNiwwLjgtMC44LDEuMmMtMC4yLDAuNS0wLjIsMC45LTAuMiwxLjQmIzEwOyYjOTsmIzk7Vjc2aDU4LjJWMzIuNXoiIGNsYXNzPSJzdDQiLz4mI3hhOzwvZz4mI3hhOzwvc3ZnPg==;fontSize=15;fontFamily=Google Sans;fontSource=https%3A%2F%2Ffonts.googleapis.com%2Fcss%3Ffamily%3DGoogle%2BSans;" vertex="1" parent="1">
            <mxGeometry x="761" y="511.5" width="75" height="75" as="geometry" />
          </mxCell>
        </object>
        <object label="" id="nBhBJxf1aetCIdoH2IMd-5">
          <mxCell style="shape=image;imageAlign=center;imageVerticalAlign=middle;labelPosition=left;align=right;verticalLabelPosition=top;spacingLeft=0;verticalAlign=bottom;spacingTop=0;spacing=0;editableCssRules=\.st[0-2]$;labelBackgroundColor=none;aspect=fixed;imageAspect=0;image=data:image/svg+xml,PHN2ZyB4bWxuczp4bGluaz0iaHR0cDovL3d3dy53My5vcmcvMTk5OS94bGluayIgeG1sbnM9Imh0dHA6Ly93d3cudzMub3JnLzIwMDAvc3ZnIiB4bWw6c3BhY2U9InByZXNlcnZlIiBzdHlsZT0iZW5hYmxlLWJhY2tncm91bmQ6bmV3IDAgMCAxMjAgMTIwOyIgdmlld0JveD0iMCAwIDEyMCAxMjAiIHk9IjBweCIgeD0iMHB4IiBpZD0iTGF5ZXJfMSIgdmVyc2lvbj0iMS4xIj4mI3hhOzxzdHlsZSB0eXBlPSJ0ZXh0L2NzcyI+LnN0MCB7IGZpbGw6IHJnYigxOCwgNjUsIDE0NSk7IH0gLnN0MSB7IGZpbGw6IG5vbmU7IHN0cm9rZTogcmdiKDI1NSwgMjU1LCAyNTUpOyBzdHJva2Utd2lkdGg6IDQ7IHN0cm9rZS1saW5lY2FwOiByb3VuZDsgc3Ryb2tlLWxpbmVqb2luOiByb3VuZDsgc3Ryb2tlLW1pdGVybGltaXQ6IDEwOyB9IC5zdDIgeyBmaWxsOiByZ2IoMjU1LCAyNTUsIDI1NSk7IH0gLnN0MyB7IGZpbGw6IG5vbmU7IHN0cm9rZTogcmdiKDI1NSwgMjU1LCAyNTUpOyBzdHJva2Utd2lkdGg6IDQ7IHN0cm9rZS1taXRlcmxpbWl0OiAxMDsgfSAuc3Q0IHsgZmlsbDogbm9uZTsgc3Ryb2tlOiByZ2IoMjU1LCAyNTUsIDI1NSk7IHN0cm9rZS13aWR0aDogNDsgc3Ryb2tlLWxpbmVjYXA6IHJvdW5kOyBzdHJva2UtbGluZWpvaW46IHJvdW5kOyB9IC5zdDUgeyBmaWxsOiByZ2IoMjU1LCAyNTUsIDI1NSk7IHN0cm9rZTogcmdiKDI1NSwgMjU1LCAyNTUpOyBzdHJva2Utd2lkdGg6IDQ7IHN0cm9rZS1saW5lY2FwOiByb3VuZDsgc3Ryb2tlLWxpbmVqb2luOiByb3VuZDsgc3Ryb2tlLW1pdGVybGltaXQ6IDEwOyB9IC5zdDYgeyBmaWxsOiBub25lOyBzdHJva2U6IHJnYigyNTUsIDI1NSwgMjU1KTsgc3Ryb2tlLXdpZHRoOiA0LjIzMzM7IHN0cm9rZS1saW5lY2FwOiByb3VuZDsgc3Ryb2tlLWxpbmVqb2luOiByb3VuZDsgc3Ryb2tlLW1pdGVybGltaXQ6IDEwOyB9IC5zdDcgeyBmaWxsOiBub25lOyBzdHJva2U6IHJnYigyNTUsIDI1NSwgMjU1KTsgc3Ryb2tlLXdpZHRoOiA0OyBzdHJva2UtbGluZWNhcDogcm91bmQ7IHN0cm9rZS1taXRlcmxpbWl0OiAxMDsgfSAuc3Q4IHsgZmlsbDogcmdiKDI1NSwgMjU1LCAyNTUpOyBzdHJva2U6IHJnYigyNTUsIDI1NSwgMjU1KTsgc3Ryb2tlLXdpZHRoOiA0OyBzdHJva2UtbWl0ZXJsaW1pdDogMTA7IH0gLnN0OSB7IGZpbGw6IHJnYigyNTUsIDI1NSwgMjU1KTsgc3Ryb2tlOiByZ2IoMjU1LCAyNTUsIDI1NSk7IHN0cm9rZS13aWR0aDogNDsgfSAuc3QxMCB7IGZpbGw6IG5vbmU7IHN0cm9rZTogcmdiKDI1NSwgMjU1LCAyNTUpOyBzdHJva2Utd2lkdGg6IDQ7IH0gLnN0MTEgeyBmaWxsOiByZ2IoMzgsIDM4LCAzOCk7IHN0cm9rZTogcmdiKDI1NSwgMjU1LCAyNTUpOyBzdHJva2Utd2lkdGg6IDQuMjMzMzsgfSAuc3QxMiB7IGZpbGwtcnVsZTogZXZlbm9kZDsgY2xpcC1ydWxlOiBldmVub2RkOyBmaWxsOiBub25lOyBzdHJva2U6IHJnYigyNTUsIDI1NSwgMjU1KTsgc3Ryb2tlLXdpZHRoOiA0OyBzdHJva2UtbWl0ZXJsaW1pdDogMTA7IH0gLnN0MTMgeyBmaWxsLXJ1bGU6IGV2ZW5vZGQ7IGNsaXAtcnVsZTogZXZlbm9kZDsgZmlsbDogcmdiKDI1NSwgMjU1LCAyNTUpOyBzdHJva2U6IHJnYigyNTUsIDI1NSwgMjU1KTsgc3Ryb2tlLXdpZHRoOiA0OyB9IC5zdDE0IHsgZmlsbDogbm9uZTsgc3Ryb2tlOiByZ2IoMjU1LCAyNTUsIDI1NSk7IHN0cm9rZS13aWR0aDogNC4yMzMzOyBzdHJva2UtbGluZWNhcDogcm91bmQ7IHN0cm9rZS1saW5lam9pbjogcm91bmQ7IH0gLnN0MTUgeyBmaWxsOiBub25lOyBzdHJva2U6IHJnYigyNTUsIDI1NSwgMjU1KTsgc3Ryb2tlLXdpZHRoOiA0OyBzdHJva2UtbGluZWNhcDogcm91bmQ7IH0gLnN0MTYgeyBmaWxsOiByZ2IoMjU1LCAyNTUsIDI1NSk7IHN0cm9rZTogcmdiKDI1NSwgMjU1LCAyNTUpOyBzdHJva2UtbWl0ZXJsaW1pdDogMTA7IH0gLnN0MTcgeyBmaWxsOiByZ2IoMzgsIDM4LCAzOCk7IHN0cm9rZTogcmdiKDI1NSwgMjU1LCAyNTUpOyBzdHJva2Utd2lkdGg6IDQ7IHN0cm9rZS1taXRlcmxpbWl0OiAxMDsgfSAuc3QxOCB7IGZpbGw6IHJnYigyNTUsIDI1NSwgMjU1KTsgc3Ryb2tlOiByZ2IoMjU1LCAyNTUsIDI1NSk7IHN0cm9rZS13aWR0aDogNDsgc3Ryb2tlLWxpbmVjYXA6IHJvdW5kOyBzdHJva2UtbGluZWpvaW46IHJvdW5kOyB9IDwvc3R5bGU+JiN4YTs8cmVjdCBoZWlnaHQ9IjEyMCIgd2lkdGg9IjEyMCIgY2xhc3M9InN0MCIvPiYjeGE7PGc+JiN4YTsJPHBhdGggZD0iTTEwMCw5MS4xSDIwSDEwMHogTTg5LjEsMzIuNWMwLTAuNSwwLTEtMC4yLTEuNGMtMC4yLTAuNS0wLjQtMC45LTAuOC0xLjJjLTAuMy0wLjMtMC44LTAuNi0xLjItMC44JiMxMDsmIzk7JiM5O2MtMC41LTAuMi0wLjktMC4yLTEuNC0wLjJIMzQuNmMtMC41LDAtMSwwLTEuNCwwLjJjLTAuNSwwLjItMC45LDAuNC0xLjIsMC44Yy0wLjMsMC4zLTAuNiwwLjgtMC44LDEuMmMtMC4yLDAuNS0wLjIsMC45LTAuMiwxLjQmIzEwOyYjOTsmIzk7Vjc2aDU4LjJWMzIuNXoiIGNsYXNzPSJzdDQiLz4mI3hhOzwvZz4mI3hhOzwvc3ZnPg==;fontSize=15;fontFamily=Google Sans;fontSource=https%3A%2F%2Ffonts.googleapis.com%2Fcss%3Ffamily%3DGoogle%2BSans;" vertex="1" parent="1">
            <mxGeometry x="911" y="511.5" width="75" height="75" as="geometry" />
          </mxCell>
        </object>
        <object label="" source="spine1" target="leaf1" id="nBhBJxf1aetCIdoH2IMd-8">
          <mxCell style="endArrow=none;jumpStyle=gap;entryY=0;exitY=1;entryX=0.5;exitX=0.5;fontFamily=Google Sans;fontSource=https%3A%2F%2Ffonts.googleapis.com%2Fcss%3Ffamily%3DGoogle%2BSans;strokeColor=#98A2AE;strokeWidth=2;entryDx=0;entryDy=0;" edge="1" parent="1" source="nBhBJxf1aetCIdoH2IMd-1" target="nBhBJxf1aetCIdoH2IMd-2">
            <mxGeometry relative="1" as="geometry" />
          </mxCell>
        </object>
        <object label="e1-1" id="nBhBJxf1aetCIdoH2IMd-9">
          <mxCell style="rounded=1;whiteSpace=wrap;html=1;fontFamily=Google Sans;fontSource=https%3A%2F%2Ffonts.googleapis.com%2Fcss%3Ffamily%3DGoogle%2BSans;arcSize=32;spacing=0;spacingBottom=1;fillColor=#f5f5f5;fontColor=#333333;strokeColor=#98A2AE;fontSize=11;horizontal=1;fontStyle=0" vertex="1" parent="1">
            <mxGeometry x="833" y="255.5" width="32" height="20" as="geometry" />
          </mxCell>
        </object>
        <object label="e1-50" id="nBhBJxf1aetCIdoH2IMd-10">
          <mxCell style="rounded=1;whiteSpace=wrap;html=1;fontFamily=Google Sans;fontSource=https%3A%2F%2Ffonts.googleapis.com%2Fcss%3Ffamily%3DGoogle%2BSans;arcSize=32;spacing=0;spacingBottom=1;fillColor=#f5f5f5;fontColor=#333333;strokeColor=#98A2AE;fontSize=11;horizontal=1;fontStyle=0" vertex="1" parent="1">
            <mxGeometry x="790.5" y="313.5" width="32" height="20" as="geometry" />
          </mxCell>
        </object>
        <object label="" source="spine1" target="leaf2" id="nBhBJxf1aetCIdoH2IMd-11">
          <mxCell style="endArrow=none;jumpStyle=gap;entryY=0;exitY=1;entryX=0.5;exitX=0.5;fontFamily=Google Sans;fontSource=https%3A%2F%2Ffonts.googleapis.com%2Fcss%3Ffamily%3DGoogle%2BSans;strokeColor=#98A2AE;strokeWidth=2;" edge="1" parent="1" source="nBhBJxf1aetCIdoH2IMd-1" target="nBhBJxf1aetCIdoH2IMd-3">
            <mxGeometry relative="1" as="geometry" />
          </mxCell>
        </object>
        <object label="e1-2" id="nBhBJxf1aetCIdoH2IMd-12">
          <mxCell style="rounded=1;whiteSpace=wrap;html=1;fontFamily=Google Sans;fontSource=https%3A%2F%2Ffonts.googleapis.com%2Fcss%3Ffamily%3DGoogle%2BSans;arcSize=32;spacing=0;spacingBottom=1;fillColor=#f5f5f5;fontColor=#333333;strokeColor=#98A2AE;fontSize=11;horizontal=1;fontStyle=0" vertex="1" parent="1">
            <mxGeometry x="876" y="255.5" width="32" height="20" as="geometry" />
          </mxCell>
        </object>
        <object label="e1-50" id="nBhBJxf1aetCIdoH2IMd-13">
          <mxCell style="rounded=1;whiteSpace=wrap;html=1;fontFamily=Google Sans;fontSource=https%3A%2F%2Ffonts.googleapis.com%2Fcss%3Ffamily%3DGoogle%2BSans;arcSize=32;spacing=0;spacingBottom=1;fillColor=#f5f5f5;fontColor=#333333;strokeColor=#98A2AE;fontSize=11;horizontal=1;fontStyle=0" vertex="1" parent="1">
            <mxGeometry x="916.5" y="313.5" width="32" height="20" as="geometry" />
          </mxCell>
        </object>
        <object label="" source="spine1" target="mirror1" id="nBhBJxf1aetCIdoH2IMd-14">
          <mxCell style="endArrow=none;jumpStyle=gap;entryY=0.5;exitY=0.5;entryX=1;exitX=0;entryDx=0;entryDy=0;exitDx=0;exitDy=0;fontFamily=Google Sans;fontSource=https%3A%2F%2Ffonts.googleapis.com%2Fcss%3Ffamily%3DGoogle%2BSans;strokeColor=#98A2AE;strokeWidth=2;" edge="1" parent="1" source="nBhBJxf1aetCIdoH2IMd-31">
            <mxGeometry relative="1" as="geometry">
              <mxPoint x="646" y="202" as="targetPoint" />
            </mxGeometry>
          </mxCell>
        </object>
        <object label="" source="leaf1" target="client1" id="nBhBJxf1aetCIdoH2IMd-15">
          <mxCell style="endArrow=none;jumpStyle=gap;entryY=0;exitY=1;entryX=0.5;exitX=0.5;fontFamily=Google Sans;fontSource=https%3A%2F%2Ffonts.googleapis.com%2Fcss%3Ffamily%3DGoogle%2BSans;strokeColor=#98A2AE;strokeWidth=2;" edge="1" parent="1" source="nBhBJxf1aetCIdoH2IMd-19" target="nBhBJxf1aetCIdoH2IMd-4">
            <mxGeometry relative="1" as="geometry" />
          </mxCell>
        </object>
        <object label="" source="leaf1" target="mirror2" id="nBhBJxf1aetCIdoH2IMd-16">
          <mxCell style="endArrow=none;jumpStyle=gap;entryY=0.5;exitY=0.5;entryX=1;exitX=0;entryDx=0;entryDy=0;exitDx=0;exitDy=0;fontFamily=Google Sans;fontSource=https%3A%2F%2Ffonts.googleapis.com%2Fcss%3Ffamily%3DGoogle%2BSans;strokeColor=#98A2AE;strokeWidth=2;" edge="1" parent="1" source="nBhBJxf1aetCIdoH2IMd-29">
            <mxGeometry relative="1" as="geometry">
              <mxPoint x="646" y="377" as="targetPoint" />
            </mxGeometry>
          </mxCell>
        </object>
        <object label="" source="leaf2" target="client2" id="nBhBJxf1aetCIdoH2IMd-17">
          <mxCell style="endArrow=none;jumpStyle=gap;entryY=0;exitY=1;entryX=0.5;exitX=0.5;fontFamily=Google Sans;fontSource=https%3A%2F%2Ffonts.googleapis.com%2Fcss%3Ffamily%3DGoogle%2BSans;strokeColor=#98A2AE;strokeWidth=2;" edge="1" parent="1" source="nBhBJxf1aetCIdoH2IMd-23" target="nBhBJxf1aetCIdoH2IMd-5">
            <mxGeometry relative="1" as="geometry" />
          </mxCell>
        </object>
        <mxCell id="nBhBJxf1aetCIdoH2IMd-18" value="" style="endArrow=none;jumpStyle=gap;entryY=0;exitY=1;entryX=0.5;exitX=0.5;fontFamily=Google Sans;fontSource=https%3A%2F%2Ffonts.googleapis.com%2Fcss%3Ffamily%3DGoogle%2BSans;strokeColor=#98A2AE;strokeWidth=2;" edge="1" parent="1" source="nBhBJxf1aetCIdoH2IMd-21" target="nBhBJxf1aetCIdoH2IMd-19">
          <mxGeometry relative="1" as="geometry">
            <mxPoint x="799" y="414.5" as="sourcePoint" />
            <mxPoint x="799" y="511.5" as="targetPoint" />
          </mxGeometry>
        </mxCell>
        <object label="eth1" id="nBhBJxf1aetCIdoH2IMd-19">
          <mxCell style="rounded=1;whiteSpace=wrap;html=1;fontFamily=Google Sans;fontSource=https%3A%2F%2Ffonts.googleapis.com%2Fcss%3Ffamily%3DGoogle%2BSans;arcSize=32;spacing=0;spacingBottom=1;fillColor=#f5f5f5;fontColor=#333333;strokeColor=#98A2AE;fontSize=11;horizontal=1;fontStyle=0" vertex="1" parent="1">
            <mxGeometry x="782.5" y="482" width="32" height="20" as="geometry" />
          </mxCell>
        </object>
        <mxCell id="nBhBJxf1aetCIdoH2IMd-20" value="" style="endArrow=none;jumpStyle=gap;entryY=0;exitY=1;entryX=0.5;exitX=0.5;fontFamily=Google Sans;fontSource=https%3A%2F%2Ffonts.googleapis.com%2Fcss%3Ffamily%3DGoogle%2BSans;strokeColor=#98A2AE;strokeWidth=2;" edge="1" parent="1" source="nBhBJxf1aetCIdoH2IMd-2" target="nBhBJxf1aetCIdoH2IMd-21">
          <mxGeometry relative="1" as="geometry">
            <mxPoint x="799" y="414.5" as="sourcePoint" />
            <mxPoint x="799" y="482.5" as="targetPoint" />
          </mxGeometry>
        </mxCell>
        <object label="e1-1" id="nBhBJxf1aetCIdoH2IMd-21">
          <mxCell style="rounded=1;whiteSpace=wrap;html=1;fontFamily=Google Sans;fontSource=https%3A%2F%2Ffonts.googleapis.com%2Fcss%3Ffamily%3DGoogle%2BSans;arcSize=32;spacing=0;spacingBottom=1;fillColor=#f5f5f5;fontColor=#333333;strokeColor=#98A2AE;fontSize=11;horizontal=1;fontStyle=0" vertex="1" parent="1">
            <mxGeometry x="782.5" y="420.5" width="32" height="20" as="geometry" />
          </mxCell>
        </object>
        <mxCell id="nBhBJxf1aetCIdoH2IMd-22" value="" style="endArrow=none;jumpStyle=gap;entryY=0;exitY=1;entryX=0.5;exitX=0.5;fontFamily=Google Sans;fontSource=https%3A%2F%2Ffonts.googleapis.com%2Fcss%3Ffamily%3DGoogle%2BSans;strokeColor=#98A2AE;strokeWidth=2;" edge="1" parent="1" source="nBhBJxf1aetCIdoH2IMd-25" target="nBhBJxf1aetCIdoH2IMd-23">
          <mxGeometry relative="1" as="geometry">
            <mxPoint x="949" y="414.5" as="sourcePoint" />
            <mxPoint x="949" y="511.5" as="targetPoint" />
          </mxGeometry>
        </mxCell>
        <object label="eth1" id="nBhBJxf1aetCIdoH2IMd-23">
          <mxCell style="rounded=1;whiteSpace=wrap;html=1;fontFamily=Google Sans;fontSource=https%3A%2F%2Ffonts.googleapis.com%2Fcss%3Ffamily%3DGoogle%2BSans;arcSize=32;spacing=0;spacingBottom=1;fillColor=#f5f5f5;fontColor=#333333;strokeColor=#98A2AE;fontSize=11;horizontal=1;fontStyle=0" vertex="1" parent="1">
            <mxGeometry x="932.5" y="484" width="32" height="20" as="geometry" />
          </mxCell>
        </object>
        <mxCell id="nBhBJxf1aetCIdoH2IMd-24" value="" style="endArrow=none;jumpStyle=gap;entryY=0;exitY=1;entryX=0.5;exitX=0.5;fontFamily=Google Sans;fontSource=https%3A%2F%2Ffonts.googleapis.com%2Fcss%3Ffamily%3DGoogle%2BSans;strokeColor=#98A2AE;strokeWidth=2;" edge="1" parent="1" source="nBhBJxf1aetCIdoH2IMd-3" target="nBhBJxf1aetCIdoH2IMd-25">
          <mxGeometry relative="1" as="geometry">
            <mxPoint x="949" y="414.5" as="sourcePoint" />
            <mxPoint x="949" y="485.5" as="targetPoint" />
          </mxGeometry>
        </mxCell>
        <object label="e1-1" id="nBhBJxf1aetCIdoH2IMd-25">
          <mxCell style="rounded=1;whiteSpace=wrap;html=1;fontFamily=Google Sans;fontSource=https%3A%2F%2Ffonts.googleapis.com%2Fcss%3Ffamily%3DGoogle%2BSans;arcSize=32;spacing=0;spacingBottom=1;fillColor=#f5f5f5;fontColor=#333333;strokeColor=#98A2AE;fontSize=11;horizontal=1;fontStyle=0" vertex="1" parent="1">
            <mxGeometry x="932.5" y="420.5" width="32" height="20" as="geometry" />
          </mxCell>
        </object>
        <mxCell id="nBhBJxf1aetCIdoH2IMd-26" value="" style="endArrow=none;jumpStyle=gap;entryY=0.5;exitY=0.5;entryX=1;exitX=0;entryDx=0;entryDy=0;exitDx=0;exitDy=0;fontFamily=Google Sans;fontSource=https%3A%2F%2Ffonts.googleapis.com%2Fcss%3Ffamily%3DGoogle%2BSans;strokeColor=#98A2AE;strokeWidth=2;" edge="1" parent="1" source="nBhBJxf1aetCIdoH2IMd-2" target="nBhBJxf1aetCIdoH2IMd-27">
          <mxGeometry relative="1" as="geometry">
            <mxPoint x="761" y="377.5" as="sourcePoint" />
            <mxPoint x="646" y="377.5" as="targetPoint" />
          </mxGeometry>
        </mxCell>
        <object label="e1-10" id="nBhBJxf1aetCIdoH2IMd-27">
          <mxCell style="rounded=1;whiteSpace=wrap;html=1;fontFamily=Google Sans;fontSource=https%3A%2F%2Ffonts.googleapis.com%2Fcss%3Ffamily%3DGoogle%2BSans;arcSize=32;spacing=0;spacingBottom=1;fillColor=#f5f5f5;fontColor=#333333;strokeColor=#98A2AE;fontSize=11;horizontal=1;fontStyle=0" vertex="1" parent="1">
            <mxGeometry x="721" y="367" width="32" height="20" as="geometry" />
          </mxCell>
        </object>
        <mxCell id="nBhBJxf1aetCIdoH2IMd-28" value="" style="endArrow=none;jumpStyle=gap;entryY=0.5;exitY=0.5;entryX=1;exitX=0;entryDx=0;entryDy=0;exitDx=0;exitDy=0;fontFamily=Google Sans;fontSource=https%3A%2F%2Ffonts.googleapis.com%2Fcss%3Ffamily%3DGoogle%2BSans;strokeColor=#98A2AE;strokeWidth=2;" edge="1" parent="1" source="nBhBJxf1aetCIdoH2IMd-27" target="nBhBJxf1aetCIdoH2IMd-29">
          <mxGeometry relative="1" as="geometry">
            <mxPoint x="718" y="377.5" as="sourcePoint" />
            <mxPoint x="646" y="377.5" as="targetPoint" />
          </mxGeometry>
        </mxCell>
        <object label="eth1" id="nBhBJxf1aetCIdoH2IMd-29">
          <mxCell style="rounded=1;whiteSpace=wrap;html=1;fontFamily=Google Sans;fontSource=https%3A%2F%2Ffonts.googleapis.com%2Fcss%3Ffamily%3DGoogle%2BSans;arcSize=32;spacing=0;spacingBottom=1;fillColor=#f5f5f5;fontColor=#333333;strokeColor=#98A2AE;fontSize=11;horizontal=1;fontStyle=0" vertex="1" parent="1">
            <mxGeometry x="651" y="367" width="32" height="20" as="geometry" />
          </mxCell>
        </object>
        <mxCell id="nBhBJxf1aetCIdoH2IMd-30" value="" style="endArrow=none;jumpStyle=gap;entryY=0.5;exitY=0.5;entryX=1;exitX=0;entryDx=0;entryDy=0;exitDx=0;exitDy=0;fontFamily=Google Sans;fontSource=https%3A%2F%2Ffonts.googleapis.com%2Fcss%3Ffamily%3DGoogle%2BSans;strokeColor=#98A2AE;strokeWidth=2;" edge="1" parent="1" source="nBhBJxf1aetCIdoH2IMd-33" target="nBhBJxf1aetCIdoH2IMd-31">
          <mxGeometry relative="1" as="geometry">
            <mxPoint x="836" y="202.5" as="sourcePoint" />
            <mxPoint x="646" y="202.5" as="targetPoint" />
          </mxGeometry>
        </mxCell>
        <object label="eth1" id="nBhBJxf1aetCIdoH2IMd-31">
          <mxCell style="rounded=1;whiteSpace=wrap;html=1;fontFamily=Google Sans;fontSource=https%3A%2F%2Ffonts.googleapis.com%2Fcss%3Ffamily%3DGoogle%2BSans;arcSize=32;spacing=0;spacingBottom=1;fillColor=#f5f5f5;fontColor=#333333;strokeColor=#98A2AE;fontSize=11;horizontal=1;fontStyle=0" vertex="1" parent="1">
            <mxGeometry x="651" y="192" width="32" height="20" as="geometry" />
          </mxCell>
        </object>
        <mxCell id="nBhBJxf1aetCIdoH2IMd-32" value="" style="endArrow=none;jumpStyle=gap;entryY=0.5;exitY=0.5;entryX=1;exitX=0;entryDx=0;entryDy=0;exitDx=0;exitDy=0;fontFamily=Google Sans;fontSource=https%3A%2F%2Ffonts.googleapis.com%2Fcss%3Ffamily%3DGoogle%2BSans;strokeColor=#98A2AE;strokeWidth=2;" edge="1" parent="1" source="nBhBJxf1aetCIdoH2IMd-1" target="nBhBJxf1aetCIdoH2IMd-33">
          <mxGeometry relative="1" as="geometry">
            <mxPoint x="836" y="202.5" as="sourcePoint" />
            <mxPoint x="691" y="202.5" as="targetPoint" />
          </mxGeometry>
        </mxCell>
        <object label="e1-10" id="nBhBJxf1aetCIdoH2IMd-33">
          <mxCell style="rounded=1;whiteSpace=wrap;html=1;fontFamily=Google Sans;fontSource=https%3A%2F%2Ffonts.googleapis.com%2Fcss%3Ffamily%3DGoogle%2BSans;arcSize=32;spacing=0;spacingBottom=1;fillColor=#f5f5f5;fontColor=#333333;strokeColor=#98A2AE;fontSize=11;horizontal=1;fontStyle=0" vertex="1" parent="1">
            <mxGeometry x="798" y="192" width="32" height="20" as="geometry" />
          </mxCell>
        </object>
        <mxCell id="nBhBJxf1aetCIdoH2IMd-34" value="client1" style="text;html=1;align=center;verticalAlign=middle;resizable=0;points=[];autosize=1;fontSize=16;fontFamily=Google Sans;fontStyle=0;fontColor=#FFFFFF;fontSource=https%3A%2F%2Ffonts.googleapis.com%2Fcss%3Ffamily%3DGoogle%2BSans;" vertex="1" parent="1">
          <mxGeometry x="767" y="586.5" width="63" height="31" as="geometry" />
        </mxCell>
        <mxCell id="nBhBJxf1aetCIdoH2IMd-35" value="client2" style="text;html=1;align=center;verticalAlign=middle;resizable=0;points=[];autosize=1;fontSize=16;fontFamily=Google Sans;fontStyle=0;fontColor=#FFFFFF;fontSource=https%3A%2F%2Ffonts.googleapis.com%2Fcss%3Ffamily%3DGoogle%2BSans;" vertex="1" parent="1">
          <mxGeometry x="916" y="586.5" width="65" height="31" as="geometry" />
        </mxCell>
        <mxCell id="nBhBJxf1aetCIdoH2IMd-36" value="leaf1" style="text;html=1;align=center;verticalAlign=middle;resizable=0;points=[];autosize=1;fontSize=16;fontFamily=Google Sans;fontStyle=0;fontColor=#FFFFFF;fontSource=https%3A%2F%2Ffonts.googleapis.com%2Fcss%3Ffamily%3DGoogle%2BSans;" vertex="1" parent="1">
          <mxGeometry x="729" y="308" width="51" height="31" as="geometry" />
        </mxCell>
        <mxCell id="nBhBJxf1aetCIdoH2IMd-37" value="leaf2" style="text;html=1;align=center;verticalAlign=middle;resizable=0;points=[];autosize=1;fontSize=16;fontFamily=Google Sans;fontStyle=0;fontColor=#FFFFFF;fontSource=https%3A%2F%2Ffonts.googleapis.com%2Fcss%3Ffamily%3DGoogle%2BSans;" vertex="1" parent="1">
          <mxGeometry x="964" y="308" width="53" height="31" as="geometry" />
        </mxCell>
        <mxCell id="nBhBJxf1aetCIdoH2IMd-39" value="&lt;p style=&quot;line-height: 70%;&quot;&gt;mirror2&lt;br&gt;&lt;font color=&quot;#98a2ae&quot; style=&quot;font-size: 11px;&quot;&gt;(mirror destination)&lt;/font&gt;&lt;/p&gt;" style="text;html=1;align=center;verticalAlign=middle;resizable=0;points=[];autosize=1;fontSize=16;fontFamily=Google Sans;fontStyle=0;fontColor=#FFFFFF;fontSource=https%3A%2F%2Ffonts.googleapis.com%2Fcss%3Ffamily%3DGoogle%2BSans;spacing=0;spacingBottom=-2;spacingRight=-1;spacingTop=-2;" vertex="1" parent="1">
          <mxGeometry x="555" y="230" width="107" height="56" as="geometry" />
        </mxCell>
        <mxCell id="nBhBJxf1aetCIdoH2IMd-40" value="spine1" style="text;html=1;align=center;verticalAlign=middle;resizable=0;points=[];autosize=1;fontSize=16;fontFamily=Google Sans;fontStyle=0;fontColor=#FFFFFF;fontSource=https%3A%2F%2Ffonts.googleapis.com%2Fcss%3Ffamily%3DGoogle%2BSans;" vertex="1" parent="1">
          <mxGeometry x="842" y="133.5" width="63" height="31" as="geometry" />
        </mxCell>
        <mxCell id="nBhBJxf1aetCIdoH2IMd-42" value="" style="shape=image;editableCssRules=\.st[0-2]$;verticalLabelPosition=bottom;labelBackgroundColor=none;verticalAlign=top;aspect=fixed;imageAspect=0;image=data:image/svg+xml,PHN2ZyB4bWxuczp4bGluaz0iaHR0cDovL3d3dy53My5vcmcvMTk5OS94bGluayIgeG1sbnM9Imh0dHA6Ly93d3cudzMub3JnLzIwMDAvc3ZnIiB4bWw6c3BhY2U9InByZXNlcnZlIiBzdHlsZT0iZW5hYmxlLWJhY2tncm91bmQ6bmV3IDAgMCAxMjAgMTIwOyIgdmlld0JveD0iMCAwIDEyMCAxMjAiIHk9IjBweCIgeD0iMHB4IiBpZD0iTGF5ZXJfMSIgdmVyc2lvbj0iMS4xIj4mI3hhOzxzdHlsZSB0eXBlPSJ0ZXh0L2NzcyI+LnN0MCB7IGZpbGw6IHJnYigyMDcsIDIyMSwgMjM3KTsgfSAuc3QxIHsgZmlsbDogcmdiKDc3LCA4NywgMTAyKTsgc3Ryb2tlOiByZ2IoNzcsIDg3LCAxMDIpOyBzdHJva2Utd2lkdGg6IDQ7IHN0cm9rZS1saW5lY2FwOiByb3VuZDsgc3Ryb2tlLWxpbmVqb2luOiByb3VuZDsgc3Ryb2tlLW1pdGVybGltaXQ6IDEwOyB9IC5zdDIgeyBmaWxsOiByZ2IoNzcsIDg3LCAxMDIpOyB9IC5zdDMgeyBmaWxsOiBub25lOyBzdHJva2U6IHJnYigyNTUsIDI1NSwgMjU1KTsgc3Ryb2tlLXdpZHRoOiA0OyBzdHJva2UtbWl0ZXJsaW1pdDogMTA7IH0gLnN0NCB7IGZpbGw6IG5vbmU7IHN0cm9rZTogcmdiKDI1NSwgMjU1LCAyNTUpOyBzdHJva2Utd2lkdGg6IDQ7IHN0cm9rZS1saW5lY2FwOiByb3VuZDsgc3Ryb2tlLWxpbmVqb2luOiByb3VuZDsgfSAuc3Q1IHsgZmlsbDogcmdiKDI1NSwgMjU1LCAyNTUpOyBzdHJva2U6IHJnYigyNTUsIDI1NSwgMjU1KTsgc3Ryb2tlLXdpZHRoOiA0OyBzdHJva2UtbGluZWNhcDogcm91bmQ7IHN0cm9rZS1saW5lam9pbjogcm91bmQ7IHN0cm9rZS1taXRlcmxpbWl0OiAxMDsgfSAuc3Q2IHsgZmlsbDogbm9uZTsgc3Ryb2tlOiByZ2IoMjU1LCAyNTUsIDI1NSk7IHN0cm9rZS13aWR0aDogNC4yMzMzOyBzdHJva2UtbGluZWNhcDogcm91bmQ7IHN0cm9rZS1saW5lam9pbjogcm91bmQ7IHN0cm9rZS1taXRlcmxpbWl0OiAxMDsgfSAuc3Q3IHsgZmlsbDogbm9uZTsgc3Ryb2tlOiByZ2IoMjU1LCAyNTUsIDI1NSk7IHN0cm9rZS13aWR0aDogNDsgc3Ryb2tlLWxpbmVjYXA6IHJvdW5kOyBzdHJva2UtbWl0ZXJsaW1pdDogMTA7IH0gLnN0OCB7IGZpbGw6IHJnYigyNTUsIDI1NSwgMjU1KTsgc3Ryb2tlOiByZ2IoMjU1LCAyNTUsIDI1NSk7IHN0cm9rZS13aWR0aDogNDsgc3Ryb2tlLW1pdGVybGltaXQ6IDEwOyB9IC5zdDkgeyBmaWxsOiByZ2IoMjU1LCAyNTUsIDI1NSk7IHN0cm9rZTogcmdiKDI1NSwgMjU1LCAyNTUpOyBzdHJva2Utd2lkdGg6IDQ7IH0gLnN0MTAgeyBmaWxsOiBub25lOyBzdHJva2U6IHJnYigyNTUsIDI1NSwgMjU1KTsgc3Ryb2tlLXdpZHRoOiA0OyB9IC5zdDExIHsgZmlsbDogcmdiKDM4LCAzOCwgMzgpOyBzdHJva2U6IHJnYigyNTUsIDI1NSwgMjU1KTsgc3Ryb2tlLXdpZHRoOiA0LjIzMzM7IH0gLnN0MTIgeyBmaWxsLXJ1bGU6IGV2ZW5vZGQ7IGNsaXAtcnVsZTogZXZlbm9kZDsgZmlsbDogbm9uZTsgc3Ryb2tlOiByZ2IoMjU1LCAyNTUsIDI1NSk7IHN0cm9rZS13aWR0aDogNDsgc3Ryb2tlLW1pdGVybGltaXQ6IDEwOyB9IC5zdDEzIHsgZmlsbC1ydWxlOiBldmVub2RkOyBjbGlwLXJ1bGU6IGV2ZW5vZGQ7IGZpbGw6IHJnYigyNTUsIDI1NSwgMjU1KTsgc3Ryb2tlOiByZ2IoMjU1LCAyNTUsIDI1NSk7IHN0cm9rZS13aWR0aDogNDsgfSAuc3QxNCB7IGZpbGw6IG5vbmU7IHN0cm9rZTogcmdiKDI1NSwgMjU1LCAyNTUpOyBzdHJva2Utd2lkdGg6IDQuMjMzMzsgc3Ryb2tlLWxpbmVjYXA6IHJvdW5kOyBzdHJva2UtbGluZWpvaW46IHJvdW5kOyB9IC5zdDE1IHsgZmlsbDogbm9uZTsgc3Ryb2tlOiByZ2IoMjU1LCAyNTUsIDI1NSk7IHN0cm9rZS13aWR0aDogNDsgc3Ryb2tlLWxpbmVjYXA6IHJvdW5kOyB9IC5zdDE2IHsgZmlsbDogcmdiKDI1NSwgMjU1LCAyNTUpOyBzdHJva2U6IHJnYigyNTUsIDI1NSwgMjU1KTsgc3Ryb2tlLW1pdGVybGltaXQ6IDEwOyB9IC5zdDE3IHsgZmlsbDogcmdiKDM4LCAzOCwgMzgpOyBzdHJva2U6IHJnYigyNTUsIDI1NSwgMjU1KTsgc3Ryb2tlLXdpZHRoOiA0OyBzdHJva2UtbWl0ZXJsaW1pdDogMTA7IH0gLnN0MTggeyBmaWxsOiByZ2IoMjU1LCAyNTUsIDI1NSk7IHN0cm9rZTogcmdiKDI1NSwgMjU1LCAyNTUpOyBzdHJva2Utd2lkdGg6IDQ7IHN0cm9rZS1saW5lY2FwOiByb3VuZDsgc3Ryb2tlLWxpbmVqb2luOiByb3VuZDsgfSAuc3QxOSB7IGZpbGw6IHJnYigwLCAxNywgNTMpOyBzdHJva2U6IHJnYigyNTUsIDI1NSwgMjU1KTsgc3Ryb2tlLXdpZHRoOiA0OyBzdHJva2UtbGluZWNhcDogcm91bmQ7IHN0cm9rZS1saW5lam9pbjogcm91bmQ7IHN0cm9rZS1taXRlcmxpbWl0OiAxMDsgfSA8L3N0eWxlPiYjeGE7PHJlY3QgaGVpZ2h0PSIxMjAiIHdpZHRoPSIxMjAiIGNsYXNzPSJzdDAiLz4mI3hhOzxnPiYjeGE7CTxwYXRoIGQ9Ik0zMiwzOC41YzAsMi43LTAuNSw0LjgtMS41LDYuMnMtMi42LDIuMi00LjcsMi4yYy0yLjEsMC0zLjctMC43LTQuNy0yLjJjLTEtMS40LTEuNS0zLjUtMS41LTYuMyYjMTA7JiM5OyYjOTtjMC0yLjcsMC41LTQuNywxLjUtNi4yYzEtMS41LDIuNi0yLjIsNC43LTIuMmMyLjEsMCwzLjYsMC43LDQuNywyLjJDMzEuNSwzMy44LDMyLDM1LjgsMzIsMzguNXogTTI4LjcsMzguNWMwLTEuOS0wLjItMy40LTAuNy00LjMmIzEwOyYjOTsmIzk7cy0xLjItMS40LTIuMi0xLjRjLTEsMC0xLjcsMC41LTIuMiwxLjRzLTAuNywyLjQtMC43LDQuM3MwLjIsMy40LDAuNyw0LjNjMC41LDAuOSwxLjIsMS40LDIuMiwxLjRjMSwwLDEuNy0wLjUsMi4yLTEuNCYjMTA7JiM5OyYjOTtDMjguNSw0MS45LDI4LjcsNDAuNCwyOC43LDM4LjV6IiBjbGFzcz0ic3QyIi8+JiN4YTsJPHBhdGggZD0iTTM5LjcsMzRsLTQsMi4ybC0xLjItMi4zbDUuOC0zLjRINDN2MTYuMmgtMy4yVjM0eiIgY2xhc3M9InN0MiIvPiYjeGE7CTxwYXRoIGQ9Ik01OS42LDM4LjVjMCwyLjctMC41LDQuOC0xLjUsNi4ycy0yLjYsMi4yLTQuNywyLjJjLTIuMSwwLTMuNy0wLjctNC43LTIuMmMtMS0xLjQtMS41LTMuNS0xLjUtNi4zJiMxMDsmIzk7JiM5O2MwLTIuNywwLjUtNC43LDEuNS02LjJjMS0xLjUsMi42LTIuMiw0LjctMi4yYzIuMSwwLDMuNiwwLjcsNC43LDIuMkM1OS4xLDMzLjgsNTkuNiwzNS44LDU5LjYsMzguNXogTTU2LjMsMzguNSYjMTA7JiM5OyYjOTtjMC0xLjktMC4yLTMuNC0wLjctNC4zcy0xLjItMS40LTIuMi0xLjRjLTEsMC0xLjcsMC41LTIuMiwxLjRzLTAuNywyLjQtMC43LDQuM3MwLjIsMy40LDAuNyw0LjNjMC41LDAuOSwxLjIsMS40LDIuMiwxLjQmIzEwOyYjOTsmIzk7YzEsMCwxLjctMC41LDIuMi0xLjRDNTYuMSw0MS45LDU2LjMsNDAuNCw1Ni4zLDM4LjV6IiBjbGFzcz0ic3QyIi8+JiN4YTsJPHBhdGggZD0iTTY3LjMsMzRsLTQsMi4ybC0xLjItMi4zbDUuOC0zLjRoMi43djE2LjJoLTMuMlYzNHoiIGNsYXNzPSJzdDIiLz4mI3hhOwk8cGF0aCBkPSJNNzkuNCwzNGwtNCwyLjJsLTEuMi0yLjNsNS44LTMuNGgyLjd2MTYuMmgtMy4yVjM0eiIgY2xhc3M9InN0MiIvPiYjeGE7CTxwYXRoIGQ9Ik05OS4zLDM4LjVjMCwyLjctMC41LDQuOC0xLjUsNi4ycy0yLjYsMi4yLTQuNywyLjJjLTIuMSwwLTMuNy0wLjctNC43LTIuMmMtMS0xLjQtMS41LTMuNS0xLjUtNi4zJiMxMDsmIzk7JiM5O2MwLTIuNywwLjUtNC43LDEuNS02LjJjMS0xLjUsMi42LTIuMiw0LjctMi4yYzIuMSwwLDMuNiwwLjcsNC43LDIuMkM5OC43LDMzLjgsOTkuMywzNS44LDk5LjMsMzguNXogTTk1LjksMzguNSYjMTA7JiM5OyYjOTtjMC0xLjktMC4yLTMuNC0wLjctNC4zcy0xLjItMS40LTIuMi0xLjRjLTEsMC0xLjcsMC41LTIuMiwxLjRzLTAuNywyLjQtMC43LDQuM3MwLjIsMy40LDAuNyw0LjNjMC41LDAuOSwxLjIsMS40LDIuMiwxLjQmIzEwOyYjOTsmIzk7YzEsMCwxLjctMC41LDIuMi0xLjRDOTUuNyw0MS45LDk1LjksNDAuNCw5NS45LDM4LjV6IiBjbGFzcz0ic3QyIi8+JiN4YTsJPHBhdGggZD0iTTI0LjcsNTZsLTQsMi4ybC0xLjItMi4zbDUuOC0zLjRIMjh2MTYuMmgtMy4yVjU2eiIgY2xhc3M9InN0MiIvPiYjeGE7CTxwYXRoIGQ9Ik00NC42LDYwLjVjMCwyLjctMC41LDQuOC0xLjUsNi4ycy0yLjYsMi4yLTQuNywyLjJjLTIuMSwwLTMuNy0wLjctNC43LTIuMmMtMS0xLjQtMS41LTMuNS0xLjUtNi4zJiMxMDsmIzk7JiM5O2MwLTIuNywwLjUtNC43LDEuNS02LjJjMS0xLjUsMi42LTIuMiw0LjctMi4yYzIuMSwwLDMuNiwwLjcsNC43LDIuMlM0NC42LDU3LjgsNDQuNiw2MC41eiBNNDEuMiw2MC41YzAtMS45LTAuMi0zLjQtMC43LTQuMyYjMTA7JiM5OyYjOTtzLTEuMi0xLjQtMi4yLTEuNGMtMSwwLTEuNywwLjUtMi4yLDEuNHMtMC43LDIuNC0wLjcsNC4zczAuMiwzLjQsMC43LDQuM2MwLjUsMC45LDEuMiwxLjQsMi4yLDEuNGMxLDAsMS43LTAuNSwyLjItMS40JiMxMDsmIzk7JiM5O0M0MSw2My45LDQxLjIsNjIuNCw0MS4yLDYwLjV6IiBjbGFzcz0ic3QyIi8+JiN4YTsJPHBhdGggZD0iTTUyLjMsNTZsLTQsMi4yTDQ3LDU1LjhsNS44LTMuNGgyLjd2MTYuMmgtMy4yVjU2eiIgY2xhc3M9InN0MiIvPiYjeGE7CTxwYXRoIGQ9Ik02NC40LDU2bC00LDIuMmwtMS4yLTIuM2w1LjgtMy40aDIuN3YxNi4yaC0zLjJWNTZ6IiBjbGFzcz0ic3QyIi8+JiN4YTsJPHBhdGggZD0iTTg0LjIsNjAuNWMwLDIuNy0wLjUsNC44LTEuNSw2LjJzLTIuNiwyLjItNC43LDIuMmMtMi4xLDAtMy43LTAuNy00LjctMi4yYy0xLTEuNC0xLjUtMy41LTEuNS02LjMmIzEwOyYjOTsmIzk7YzAtMi43LDAuNS00LjcsMS41LTYuMmMxLTEuNSwyLjYtMi4yLDQuNy0yLjJjMi4xLDAsMy42LDAuNyw0LjcsMi4yUzg0LjIsNTcuOCw4NC4yLDYwLjV6IE04MC45LDYwLjVjMC0xLjktMC4yLTMuNC0wLjctNC4zJiMxMDsmIzk7JiM5O1M3OSw1NC44LDc4LDU0LjhjLTEsMC0xLjcsMC41LTIuMiwxLjRzLTAuNywyLjQtMC43LDQuM3MwLjIsMy40LDAuNyw0LjNjMC41LDAuOSwxLjIsMS40LDIuMiwxLjRjMSwwLDEuNy0wLjUsMi4yLTEuNCYjMTA7JiM5OyYjOTtDODAuNyw2My45LDgwLjksNjIuNCw4MC45LDYwLjV6IiBjbGFzcz0ic3QyIi8+JiN4YTsJPHBhdGggZD0iTTk5LjMsNjAuNWMwLDIuNy0wLjUsNC44LTEuNSw2LjJzLTIuNiwyLjItNC43LDIuMmMtMi4xLDAtMy43LTAuNy00LjctMi4yYy0xLTEuNC0xLjUtMy41LTEuNS02LjMmIzEwOyYjOTsmIzk7YzAtMi43LDAuNS00LjcsMS41LTYuMmMxLTEuNSwyLjYtMi4yLDQuNy0yLjJjMi4xLDAsMy42LDAuNyw0LjcsMi4yUzk5LjMsNTcuOCw5OS4zLDYwLjV6IE05NS45LDYwLjVjMC0xLjktMC4yLTMuNC0wLjctNC4zJiMxMDsmIzk7JiM5O3MtMS4yLTEuNC0yLjItMS40Yy0xLDAtMS43LDAuNS0yLjIsMS40cy0wLjcsMi40LTAuNyw0LjNzMC4yLDMuNCwwLjcsNC4zYzAuNSwwLjksMS4yLDEuNCwyLjIsMS40YzEsMCwxLjctMC41LDIuMi0xLjQmIzEwOyYjOTsmIzk7Qzk1LjcsNjMuOSw5NS45LDYyLjQsOTUuOSw2MC41eiIgY2xhc3M9InN0MiIvPiYjeGE7CTxwYXRoIGQ9Ik0zMy41LDgyLjVjMCwyLjctMC41LDQuOC0xLjUsNi4yYy0xLDEuNS0yLjYsMi4yLTQuNywyLjJjLTIuMSwwLTMuNy0wLjctNC43LTIuMmMtMS0xLjQtMS41LTMuNS0xLjUtNi4zJiMxMDsmIzk7JiM5O2MwLTIuNywwLjUtNC43LDEuNS02LjJjMS0xLjUsMi42LTIuMiw0LjctMi4yYzIuMSwwLDMuNiwwLjcsNC43LDIuMkMzMyw3Ny44LDMzLjUsNzkuOCwzMy41LDgyLjV6IE0zMC4yLDgyLjUmIzEwOyYjOTsmIzk7YzAtMS45LTAuMi0zLjQtMC43LTQuM3MtMS4yLTEuNC0yLjItMS40Yy0xLDAtMS43LDAuNS0yLjIsMS40cy0wLjcsMi40LTAuNyw0LjNzMC4yLDMuNCwwLjcsNC4zYzAuNSwwLjksMS4yLDEuNCwyLjIsMS40JiMxMDsmIzk7JiM5O2MxLDAsMS43LTAuNSwyLjItMS40QzMwLDg1LjksMzAuMiw4NC40LDMwLjIsODIuNXoiIGNsYXNzPSJzdDIiLz4mI3hhOwk8cGF0aCBkPSJNNDEuMiw3OGwtNCwyLjJMMzYsNzcuOGw1LjgtMy40aDIuN3YxNi4yaC0zLjJWNzh6IiBjbGFzcz0ic3QyIi8+JiN4YTsJPHBhdGggZD0iTTYxLjEsODIuNWMwLDIuNy0wLjUsNC44LTEuNSw2LjJzLTIuNiwyLjItNC43LDIuMmMtMi4xLDAtMy43LTAuNy00LjctMi4yYy0xLTEuNC0xLjUtMy41LTEuNS02LjMmIzEwOyYjOTsmIzk7YzAtMi43LDAuNS00LjcsMS41LTYuMmMxLTEuNSwyLjYtMi4yLDQuNy0yLjJjMi4xLDAsMy42LDAuNyw0LjcsMi4yUzYxLjEsNzkuOCw2MS4xLDgyLjV6IE01Ny44LDgyLjVjMC0xLjktMC4yLTMuNC0wLjctNC4zJiMxMDsmIzk7JiM5O3MtMS4yLTEuNC0yLjItMS40Yy0xLDAtMS43LDAuNS0yLjIsMS40UzUyLDgwLjUsNTIsODIuNXMwLjIsMy40LDAuNyw0LjNjMC41LDAuOSwxLjIsMS40LDIuMiwxLjRjMSwwLDEuNy0wLjUsMi4yLTEuNCYjMTA7JiM5OyYjOTtDNTcuNSw4NS45LDU3LjgsODQuNCw1Ny44LDgyLjV6IiBjbGFzcz0ic3QyIi8+JiN4YTsJPHBhdGggZD0iTTY4LjgsNzhsLTQsMi4ybC0xLjItMi4zbDUuOC0zLjRoMi43djE2LjJoLTMuMlY3OHoiIGNsYXNzPSJzdDIiLz4mI3hhOwk8cGF0aCBkPSJNODAuOSw3OGwtNCwyLjJsLTEuMi0yLjNsNS44LTMuNGgyLjd2MTYuMmgtMy4yVjc4eiIgY2xhc3M9InN0MiIvPiYjeGE7CTxwYXRoIGQ9Ik05Myw3OGwtNCwyLjJsLTEuMi0yLjNsNS44LTMuNGgyLjd2MTYuMkg5M1Y3OHoiIGNsYXNzPSJzdDIiLz4mI3hhOzwvZz4mI3hhOzwvc3ZnPg==;" vertex="1" parent="1">
          <mxGeometry x="571" y="339.5" width="75" height="75" as="geometry" />
        </mxCell>
        <mxCell id="nBhBJxf1aetCIdoH2IMd-43" value="" style="shape=image;editableCssRules=\.st[0-2]$;verticalLabelPosition=bottom;labelBackgroundColor=none;verticalAlign=top;aspect=fixed;imageAspect=0;image=data:image/svg+xml,PHN2ZyB4bWxuczp4bGluaz0iaHR0cDovL3d3dy53My5vcmcvMTk5OS94bGluayIgeG1sbnM9Imh0dHA6Ly93d3cudzMub3JnLzIwMDAvc3ZnIiB4bWw6c3BhY2U9InByZXNlcnZlIiBzdHlsZT0iZW5hYmxlLWJhY2tncm91bmQ6bmV3IDAgMCAxMjAgMTIwOyIgdmlld0JveD0iMCAwIDEyMCAxMjAiIHk9IjBweCIgeD0iMHB4IiBpZD0iTGF5ZXJfMSIgdmVyc2lvbj0iMS4xIj4mI3hhOzxzdHlsZSB0eXBlPSJ0ZXh0L2NzcyI+LnN0MCB7IGZpbGw6IHJnYigyMDcsIDIyMSwgMjM3KTsgfSAuc3QxIHsgZmlsbDogcmdiKDc3LCA4NywgMTAyKTsgc3Ryb2tlOiByZ2IoNzcsIDg3LCAxMDIpOyBzdHJva2Utd2lkdGg6IDQ7IHN0cm9rZS1saW5lY2FwOiByb3VuZDsgc3Ryb2tlLWxpbmVqb2luOiByb3VuZDsgc3Ryb2tlLW1pdGVybGltaXQ6IDEwOyB9IC5zdDIgeyBmaWxsOiByZ2IoNzcsIDg3LCAxMDIpOyB9IC5zdDMgeyBmaWxsOiBub25lOyBzdHJva2U6IHJnYigyNTUsIDI1NSwgMjU1KTsgc3Ryb2tlLXdpZHRoOiA0OyBzdHJva2UtbWl0ZXJsaW1pdDogMTA7IH0gLnN0NCB7IGZpbGw6IG5vbmU7IHN0cm9rZTogcmdiKDI1NSwgMjU1LCAyNTUpOyBzdHJva2Utd2lkdGg6IDQ7IHN0cm9rZS1saW5lY2FwOiByb3VuZDsgc3Ryb2tlLWxpbmVqb2luOiByb3VuZDsgfSAuc3Q1IHsgZmlsbDogcmdiKDI1NSwgMjU1LCAyNTUpOyBzdHJva2U6IHJnYigyNTUsIDI1NSwgMjU1KTsgc3Ryb2tlLXdpZHRoOiA0OyBzdHJva2UtbGluZWNhcDogcm91bmQ7IHN0cm9rZS1saW5lam9pbjogcm91bmQ7IHN0cm9rZS1taXRlcmxpbWl0OiAxMDsgfSAuc3Q2IHsgZmlsbDogbm9uZTsgc3Ryb2tlOiByZ2IoMjU1LCAyNTUsIDI1NSk7IHN0cm9rZS13aWR0aDogNC4yMzMzOyBzdHJva2UtbGluZWNhcDogcm91bmQ7IHN0cm9rZS1saW5lam9pbjogcm91bmQ7IHN0cm9rZS1taXRlcmxpbWl0OiAxMDsgfSAuc3Q3IHsgZmlsbDogbm9uZTsgc3Ryb2tlOiByZ2IoMjU1LCAyNTUsIDI1NSk7IHN0cm9rZS13aWR0aDogNDsgc3Ryb2tlLWxpbmVjYXA6IHJvdW5kOyBzdHJva2UtbWl0ZXJsaW1pdDogMTA7IH0gLnN0OCB7IGZpbGw6IHJnYigyNTUsIDI1NSwgMjU1KTsgc3Ryb2tlOiByZ2IoMjU1LCAyNTUsIDI1NSk7IHN0cm9rZS13aWR0aDogNDsgc3Ryb2tlLW1pdGVybGltaXQ6IDEwOyB9IC5zdDkgeyBmaWxsOiByZ2IoMjU1LCAyNTUsIDI1NSk7IHN0cm9rZTogcmdiKDI1NSwgMjU1LCAyNTUpOyBzdHJva2Utd2lkdGg6IDQ7IH0gLnN0MTAgeyBmaWxsOiBub25lOyBzdHJva2U6IHJnYigyNTUsIDI1NSwgMjU1KTsgc3Ryb2tlLXdpZHRoOiA0OyB9IC5zdDExIHsgZmlsbDogcmdiKDM4LCAzOCwgMzgpOyBzdHJva2U6IHJnYigyNTUsIDI1NSwgMjU1KTsgc3Ryb2tlLXdpZHRoOiA0LjIzMzM7IH0gLnN0MTIgeyBmaWxsLXJ1bGU6IGV2ZW5vZGQ7IGNsaXAtcnVsZTogZXZlbm9kZDsgZmlsbDogbm9uZTsgc3Ryb2tlOiByZ2IoMjU1LCAyNTUsIDI1NSk7IHN0cm9rZS13aWR0aDogNDsgc3Ryb2tlLW1pdGVybGltaXQ6IDEwOyB9IC5zdDEzIHsgZmlsbC1ydWxlOiBldmVub2RkOyBjbGlwLXJ1bGU6IGV2ZW5vZGQ7IGZpbGw6IHJnYigyNTUsIDI1NSwgMjU1KTsgc3Ryb2tlOiByZ2IoMjU1LCAyNTUsIDI1NSk7IHN0cm9rZS13aWR0aDogNDsgfSAuc3QxNCB7IGZpbGw6IG5vbmU7IHN0cm9rZTogcmdiKDI1NSwgMjU1LCAyNTUpOyBzdHJva2Utd2lkdGg6IDQuMjMzMzsgc3Ryb2tlLWxpbmVjYXA6IHJvdW5kOyBzdHJva2UtbGluZWpvaW46IHJvdW5kOyB9IC5zdDE1IHsgZmlsbDogbm9uZTsgc3Ryb2tlOiByZ2IoMjU1LCAyNTUsIDI1NSk7IHN0cm9rZS13aWR0aDogNDsgc3Ryb2tlLWxpbmVjYXA6IHJvdW5kOyB9IC5zdDE2IHsgZmlsbDogcmdiKDI1NSwgMjU1LCAyNTUpOyBzdHJva2U6IHJnYigyNTUsIDI1NSwgMjU1KTsgc3Ryb2tlLW1pdGVybGltaXQ6IDEwOyB9IC5zdDE3IHsgZmlsbDogcmdiKDM4LCAzOCwgMzgpOyBzdHJva2U6IHJnYigyNTUsIDI1NSwgMjU1KTsgc3Ryb2tlLXdpZHRoOiA0OyBzdHJva2UtbWl0ZXJsaW1pdDogMTA7IH0gLnN0MTggeyBmaWxsOiByZ2IoMjU1LCAyNTUsIDI1NSk7IHN0cm9rZTogcmdiKDI1NSwgMjU1LCAyNTUpOyBzdHJva2Utd2lkdGg6IDQ7IHN0cm9rZS1saW5lY2FwOiByb3VuZDsgc3Ryb2tlLWxpbmVqb2luOiByb3VuZDsgfSAuc3QxOSB7IGZpbGw6IHJnYigwLCAxNywgNTMpOyBzdHJva2U6IHJnYigyNTUsIDI1NSwgMjU1KTsgc3Ryb2tlLXdpZHRoOiA0OyBzdHJva2UtbGluZWNhcDogcm91bmQ7IHN0cm9rZS1saW5lam9pbjogcm91bmQ7IHN0cm9rZS1taXRlcmxpbWl0OiAxMDsgfSA8L3N0eWxlPiYjeGE7PHJlY3QgaGVpZ2h0PSIxMjAiIHdpZHRoPSIxMjAiIGNsYXNzPSJzdDAiLz4mI3hhOzxnPiYjeGE7CTxwYXRoIGQ9Ik0zMiwzOC41YzAsMi43LTAuNSw0LjgtMS41LDYuMnMtMi42LDIuMi00LjcsMi4yYy0yLjEsMC0zLjctMC43LTQuNy0yLjJjLTEtMS40LTEuNS0zLjUtMS41LTYuMyYjMTA7JiM5OyYjOTtjMC0yLjcsMC41LTQuNywxLjUtNi4yYzEtMS41LDIuNi0yLjIsNC43LTIuMmMyLjEsMCwzLjYsMC43LDQuNywyLjJDMzEuNSwzMy44LDMyLDM1LjgsMzIsMzguNXogTTI4LjcsMzguNWMwLTEuOS0wLjItMy40LTAuNy00LjMmIzEwOyYjOTsmIzk7cy0xLjItMS40LTIuMi0xLjRjLTEsMC0xLjcsMC41LTIuMiwxLjRzLTAuNywyLjQtMC43LDQuM3MwLjIsMy40LDAuNyw0LjNjMC41LDAuOSwxLjIsMS40LDIuMiwxLjRjMSwwLDEuNy0wLjUsMi4yLTEuNCYjMTA7JiM5OyYjOTtDMjguNSw0MS45LDI4LjcsNDAuNCwyOC43LDM4LjV6IiBjbGFzcz0ic3QyIi8+JiN4YTsJPHBhdGggZD0iTTM5LjcsMzRsLTQsMi4ybC0xLjItMi4zbDUuOC0zLjRINDN2MTYuMmgtMy4yVjM0eiIgY2xhc3M9InN0MiIvPiYjeGE7CTxwYXRoIGQ9Ik01OS42LDM4LjVjMCwyLjctMC41LDQuOC0xLjUsNi4ycy0yLjYsMi4yLTQuNywyLjJjLTIuMSwwLTMuNy0wLjctNC43LTIuMmMtMS0xLjQtMS41LTMuNS0xLjUtNi4zJiMxMDsmIzk7JiM5O2MwLTIuNywwLjUtNC43LDEuNS02LjJjMS0xLjUsMi42LTIuMiw0LjctMi4yYzIuMSwwLDMuNiwwLjcsNC43LDIuMkM1OS4xLDMzLjgsNTkuNiwzNS44LDU5LjYsMzguNXogTTU2LjMsMzguNSYjMTA7JiM5OyYjOTtjMC0xLjktMC4yLTMuNC0wLjctNC4zcy0xLjItMS40LTIuMi0xLjRjLTEsMC0xLjcsMC41LTIuMiwxLjRzLTAuNywyLjQtMC43LDQuM3MwLjIsMy40LDAuNyw0LjNjMC41LDAuOSwxLjIsMS40LDIuMiwxLjQmIzEwOyYjOTsmIzk7YzEsMCwxLjctMC41LDIuMi0xLjRDNTYuMSw0MS45LDU2LjMsNDAuNCw1Ni4zLDM4LjV6IiBjbGFzcz0ic3QyIi8+JiN4YTsJPHBhdGggZD0iTTY3LjMsMzRsLTQsMi4ybC0xLjItMi4zbDUuOC0zLjRoMi43djE2LjJoLTMuMlYzNHoiIGNsYXNzPSJzdDIiLz4mI3hhOwk8cGF0aCBkPSJNNzkuNCwzNGwtNCwyLjJsLTEuMi0yLjNsNS44LTMuNGgyLjd2MTYuMmgtMy4yVjM0eiIgY2xhc3M9InN0MiIvPiYjeGE7CTxwYXRoIGQ9Ik05OS4zLDM4LjVjMCwyLjctMC41LDQuOC0xLjUsNi4ycy0yLjYsMi4yLTQuNywyLjJjLTIuMSwwLTMuNy0wLjctNC43LTIuMmMtMS0xLjQtMS41LTMuNS0xLjUtNi4zJiMxMDsmIzk7JiM5O2MwLTIuNywwLjUtNC43LDEuNS02LjJjMS0xLjUsMi42LTIuMiw0LjctMi4yYzIuMSwwLDMuNiwwLjcsNC43LDIuMkM5OC43LDMzLjgsOTkuMywzNS44LDk5LjMsMzguNXogTTk1LjksMzguNSYjMTA7JiM5OyYjOTtjMC0xLjktMC4yLTMuNC0wLjctNC4zcy0xLjItMS40LTIuMi0xLjRjLTEsMC0xLjcsMC41LTIuMiwxLjRzLTAuNywyLjQtMC43LDQuM3MwLjIsMy40LDAuNyw0LjNjMC41LDAuOSwxLjIsMS40LDIuMiwxLjQmIzEwOyYjOTsmIzk7YzEsMCwxLjctMC41LDIuMi0xLjRDOTUuNyw0MS45LDk1LjksNDAuNCw5NS45LDM4LjV6IiBjbGFzcz0ic3QyIi8+JiN4YTsJPHBhdGggZD0iTTI0LjcsNTZsLTQsMi4ybC0xLjItMi4zbDUuOC0zLjRIMjh2MTYuMmgtMy4yVjU2eiIgY2xhc3M9InN0MiIvPiYjeGE7CTxwYXRoIGQ9Ik00NC42LDYwLjVjMCwyLjctMC41LDQuOC0xLjUsNi4ycy0yLjYsMi4yLTQuNywyLjJjLTIuMSwwLTMuNy0wLjctNC43LTIuMmMtMS0xLjQtMS41LTMuNS0xLjUtNi4zJiMxMDsmIzk7JiM5O2MwLTIuNywwLjUtNC43LDEuNS02LjJjMS0xLjUsMi42LTIuMiw0LjctMi4yYzIuMSwwLDMuNiwwLjcsNC43LDIuMlM0NC42LDU3LjgsNDQuNiw2MC41eiBNNDEuMiw2MC41YzAtMS45LTAuMi0zLjQtMC43LTQuMyYjMTA7JiM5OyYjOTtzLTEuMi0xLjQtMi4yLTEuNGMtMSwwLTEuNywwLjUtMi4yLDEuNHMtMC43LDIuNC0wLjcsNC4zczAuMiwzLjQsMC43LDQuM2MwLjUsMC45LDEuMiwxLjQsMi4yLDEuNGMxLDAsMS43LTAuNSwyLjItMS40JiMxMDsmIzk7JiM5O0M0MSw2My45LDQxLjIsNjIuNCw0MS4yLDYwLjV6IiBjbGFzcz0ic3QyIi8+JiN4YTsJPHBhdGggZD0iTTUyLjMsNTZsLTQsMi4yTDQ3LDU1LjhsNS44LTMuNGgyLjd2MTYuMmgtMy4yVjU2eiIgY2xhc3M9InN0MiIvPiYjeGE7CTxwYXRoIGQ9Ik02NC40LDU2bC00LDIuMmwtMS4yLTIuM2w1LjgtMy40aDIuN3YxNi4yaC0zLjJWNTZ6IiBjbGFzcz0ic3QyIi8+JiN4YTsJPHBhdGggZD0iTTg0LjIsNjAuNWMwLDIuNy0wLjUsNC44LTEuNSw2LjJzLTIuNiwyLjItNC43LDIuMmMtMi4xLDAtMy43LTAuNy00LjctMi4yYy0xLTEuNC0xLjUtMy41LTEuNS02LjMmIzEwOyYjOTsmIzk7YzAtMi43LDAuNS00LjcsMS41LTYuMmMxLTEuNSwyLjYtMi4yLDQuNy0yLjJjMi4xLDAsMy42LDAuNyw0LjcsMi4yUzg0LjIsNTcuOCw4NC4yLDYwLjV6IE04MC45LDYwLjVjMC0xLjktMC4yLTMuNC0wLjctNC4zJiMxMDsmIzk7JiM5O1M3OSw1NC44LDc4LDU0LjhjLTEsMC0xLjcsMC41LTIuMiwxLjRzLTAuNywyLjQtMC43LDQuM3MwLjIsMy40LDAuNyw0LjNjMC41LDAuOSwxLjIsMS40LDIuMiwxLjRjMSwwLDEuNy0wLjUsMi4yLTEuNCYjMTA7JiM5OyYjOTtDODAuNyw2My45LDgwLjksNjIuNCw4MC45LDYwLjV6IiBjbGFzcz0ic3QyIi8+JiN4YTsJPHBhdGggZD0iTTk5LjMsNjAuNWMwLDIuNy0wLjUsNC44LTEuNSw2LjJzLTIuNiwyLjItNC43LDIuMmMtMi4xLDAtMy43LTAuNy00LjctMi4yYy0xLTEuNC0xLjUtMy41LTEuNS02LjMmIzEwOyYjOTsmIzk7YzAtMi43LDAuNS00LjcsMS41LTYuMmMxLTEuNSwyLjYtMi4yLDQuNy0yLjJjMi4xLDAsMy42LDAuNyw0LjcsMi4yUzk5LjMsNTcuOCw5OS4zLDYwLjV6IE05NS45LDYwLjVjMC0xLjktMC4yLTMuNC0wLjctNC4zJiMxMDsmIzk7JiM5O3MtMS4yLTEuNC0yLjItMS40Yy0xLDAtMS43LDAuNS0yLjIsMS40cy0wLjcsMi40LTAuNyw0LjNzMC4yLDMuNCwwLjcsNC4zYzAuNSwwLjksMS4yLDEuNCwyLjIsMS40YzEsMCwxLjctMC41LDIuMi0xLjQmIzEwOyYjOTsmIzk7Qzk1LjcsNjMuOSw5NS45LDYyLjQsOTUuOSw2MC41eiIgY2xhc3M9InN0MiIvPiYjeGE7CTxwYXRoIGQ9Ik0zMy41LDgyLjVjMCwyLjctMC41LDQuOC0xLjUsNi4yYy0xLDEuNS0yLjYsMi4yLTQuNywyLjJjLTIuMSwwLTMuNy0wLjctNC43LTIuMmMtMS0xLjQtMS41LTMuNS0xLjUtNi4zJiMxMDsmIzk7JiM5O2MwLTIuNywwLjUtNC43LDEuNS02LjJjMS0xLjUsMi42LTIuMiw0LjctMi4yYzIuMSwwLDMuNiwwLjcsNC43LDIuMkMzMyw3Ny44LDMzLjUsNzkuOCwzMy41LDgyLjV6IE0zMC4yLDgyLjUmIzEwOyYjOTsmIzk7YzAtMS45LTAuMi0zLjQtMC43LTQuM3MtMS4yLTEuNC0yLjItMS40Yy0xLDAtMS43LDAuNS0yLjIsMS40cy0wLjcsMi40LTAuNyw0LjNzMC4yLDMuNCwwLjcsNC4zYzAuNSwwLjksMS4yLDEuNCwyLjIsMS40JiMxMDsmIzk7JiM5O2MxLDAsMS43LTAuNSwyLjItMS40QzMwLDg1LjksMzAuMiw4NC40LDMwLjIsODIuNXoiIGNsYXNzPSJzdDIiLz4mI3hhOwk8cGF0aCBkPSJNNDEuMiw3OGwtNCwyLjJMMzYsNzcuOGw1LjgtMy40aDIuN3YxNi4yaC0zLjJWNzh6IiBjbGFzcz0ic3QyIi8+JiN4YTsJPHBhdGggZD0iTTYxLjEsODIuNWMwLDIuNy0wLjUsNC44LTEuNSw2LjJzLTIuNiwyLjItNC43LDIuMmMtMi4xLDAtMy43LTAuNy00LjctMi4yYy0xLTEuNC0xLjUtMy41LTEuNS02LjMmIzEwOyYjOTsmIzk7YzAtMi43LDAuNS00LjcsMS41LTYuMmMxLTEuNSwyLjYtMi4yLDQuNy0yLjJjMi4xLDAsMy42LDAuNyw0LjcsMi4yUzYxLjEsNzkuOCw2MS4xLDgyLjV6IE01Ny44LDgyLjVjMC0xLjktMC4yLTMuNC0wLjctNC4zJiMxMDsmIzk7JiM5O3MtMS4yLTEuNC0yLjItMS40Yy0xLDAtMS43LDAuNS0yLjIsMS40UzUyLDgwLjUsNTIsODIuNXMwLjIsMy40LDAuNyw0LjNjMC41LDAuOSwxLjIsMS40LDIuMiwxLjRjMSwwLDEuNy0wLjUsMi4yLTEuNCYjMTA7JiM5OyYjOTtDNTcuNSw4NS45LDU3LjgsODQuNCw1Ny44LDgyLjV6IiBjbGFzcz0ic3QyIi8+JiN4YTsJPHBhdGggZD0iTTY4LjgsNzhsLTQsMi4ybC0xLjItMi4zbDUuOC0zLjRoMi43djE2LjJoLTMuMlY3OHoiIGNsYXNzPSJzdDIiLz4mI3hhOwk8cGF0aCBkPSJNODAuOSw3OGwtNCwyLjJsLTEuMi0yLjNsNS44LTMuNGgyLjd2MTYuMmgtMy4yVjc4eiIgY2xhc3M9InN0MiIvPiYjeGE7CTxwYXRoIGQ9Ik05Myw3OGwtNCwyLjJsLTEuMi0yLjNsNS44LTMuNGgyLjd2MTYuMkg5M1Y3OHoiIGNsYXNzPSJzdDIiLz4mI3hhOzwvZz4mI3hhOzwvc3ZnPg==;" vertex="1" parent="1">
          <mxGeometry x="571" y="164.5" width="75" height="75" as="geometry" />
        </mxCell>
        <object label="" id="nBhBJxf1aetCIdoH2IMd-2">
          <mxCell style="shape=image;imageAlign=center;imageVerticalAlign=middle;labelPosition=left;align=right;verticalLabelPosition=top;spacingLeft=0;verticalAlign=bottom;spacingTop=0;spacing=0;editableCssRules=\.st[0-2]$;labelBackgroundColor=none;aspect=fixed;imageAspect=0;image=data:image/svg+xml,PHN2ZyB4bWxuczp4bGluaz0iaHR0cDovL3d3dy53My5vcmcvMTk5OS94bGluayIgeG1sbnM9Imh0dHA6Ly93d3cudzMub3JnLzIwMDAvc3ZnIiB4bWw6c3BhY2U9InByZXNlcnZlIiBzdHlsZT0iZW5hYmxlLWJhY2tncm91bmQ6bmV3IDAgMCAxMjAgMTIwO2VkaXRhYmxlQ3NzUnVsZXM9Lio7IiB2aWV3Qm94PSIwIDAgMTIwIDEyMCIgeT0iMHB4IiB4PSIwcHgiIGlkPSJMYXllcl8xIiB2ZXJzaW9uPSIxLjEiPiYjeGE7PHN0eWxlIHR5cGU9InRleHQvY3NzIj4mI3hhOwkuc3Qwe2ZpbGw6IzAwMTEzNTt9JiN4YTsJLnN0MXtmaWxsOm5vbmU7c3Ryb2tlOiNGRkZGRkY7c3Ryb2tlLXdpZHRoOjQ7c3Ryb2tlLWxpbmVjYXA6cm91bmQ7c3Ryb2tlLWxpbmVqb2luOnJvdW5kO3N0cm9rZS1taXRlcmxpbWl0OjEwO30mI3hhOwkuc3Qye2ZpbGw6I0ZGRkZGRjt9JiN4YTsJLnN0M3tmaWxsOm5vbmU7c3Ryb2tlOiNGRkZGRkY7c3Ryb2tlLXdpZHRoOjQ7c3Ryb2tlLW1pdGVybGltaXQ6MTA7fSYjeGE7CS5zdDR7ZmlsbDpub25lO3N0cm9rZTojRkZGRkZGO3N0cm9rZS13aWR0aDo0O3N0cm9rZS1saW5lY2FwOnJvdW5kO3N0cm9rZS1saW5lam9pbjpyb3VuZDt9JiN4YTsJLnN0NXtmaWxsOiNGRkZGRkY7c3Ryb2tlOiNGRkZGRkY7c3Ryb2tlLXdpZHRoOjQ7c3Ryb2tlLWxpbmVjYXA6cm91bmQ7c3Ryb2tlLWxpbmVqb2luOnJvdW5kO3N0cm9rZS1taXRlcmxpbWl0OjEwO30mI3hhOwkuc3Q2e2ZpbGw6bm9uZTtzdHJva2U6I0ZGRkZGRjtzdHJva2Utd2lkdGg6NC4yMzMzO3N0cm9rZS1saW5lY2FwOnJvdW5kO3N0cm9rZS1saW5lam9pbjpyb3VuZDtzdHJva2UtbWl0ZXJsaW1pdDoxMDt9JiN4YTsJLnN0N3tmaWxsOm5vbmU7c3Ryb2tlOiNGRkZGRkY7c3Ryb2tlLXdpZHRoOjQ7c3Ryb2tlLWxpbmVjYXA6cm91bmQ7c3Ryb2tlLW1pdGVybGltaXQ6MTA7fSYjeGE7CS5zdDh7ZmlsbDojRkZGRkZGO3N0cm9rZTojRkZGRkZGO3N0cm9rZS13aWR0aDo0O3N0cm9rZS1taXRlcmxpbWl0OjEwO30mI3hhOwkuc3Q5e2ZpbGw6I0ZGRkZGRjtzdHJva2U6I0ZGRkZGRjtzdHJva2Utd2lkdGg6NDt9JiN4YTsJLnN0MTB7ZmlsbDpub25lO3N0cm9rZTojRkZGRkZGO3N0cm9rZS13aWR0aDo0O30mI3hhOwkuc3QxMXtmaWxsOiMyNjI2MjY7c3Ryb2tlOiNGRkZGRkY7c3Ryb2tlLXdpZHRoOjQuMjMzMzt9JiN4YTsJLnN0MTJ7ZmlsbC1ydWxlOmV2ZW5vZGQ7Y2xpcC1ydWxlOmV2ZW5vZGQ7ZmlsbDpub25lO3N0cm9rZTojRkZGRkZGO3N0cm9rZS13aWR0aDo0O3N0cm9rZS1taXRlcmxpbWl0OjEwO30mI3hhOwkuc3QxM3tmaWxsLXJ1bGU6ZXZlbm9kZDtjbGlwLXJ1bGU6ZXZlbm9kZDtmaWxsOiNGRkZGRkY7c3Ryb2tlOiNGRkZGRkY7c3Ryb2tlLXdpZHRoOjQ7fSYjeGE7CS5zdDE0e2ZpbGw6bm9uZTtzdHJva2U6I0ZGRkZGRjtzdHJva2Utd2lkdGg6NC4yMzMzO3N0cm9rZS1saW5lY2FwOnJvdW5kO3N0cm9rZS1saW5lam9pbjpyb3VuZDt9JiN4YTsJLnN0MTV7ZmlsbDpub25lO3N0cm9rZTojRkZGRkZGO3N0cm9rZS13aWR0aDo0O3N0cm9rZS1saW5lY2FwOnJvdW5kO30mI3hhOwkuc3QxNntmaWxsOiNGRkZGRkY7c3Ryb2tlOiNGRkZGRkY7c3Ryb2tlLW1pdGVybGltaXQ6MTA7fSYjeGE7CS5zdDE3e2ZpbGw6IzI2MjYyNjtzdHJva2U6I0ZGRkZGRjtzdHJva2Utd2lkdGg6NDtzdHJva2UtbWl0ZXJsaW1pdDoxMDt9JiN4YTsJLnN0MTh7ZmlsbDojRkZGRkZGO3N0cm9rZTojRkZGRkZGO3N0cm9rZS13aWR0aDo0O3N0cm9rZS1saW5lY2FwOnJvdW5kO3N0cm9rZS1saW5lam9pbjpyb3VuZDt9JiN4YTs8L3N0eWxlPiYjeGE7PHJlY3QgaGVpZ2h0PSIxMjAiIHdpZHRoPSIxMjAiIGNsYXNzPSJzdDAiLz4mI3hhOzxnPiYjeGE7CTxnPiYjeGE7CQk8cGF0aCBkPSJNNzEuNywxOS43VjQ4aDI4IiBjbGFzcz0ic3QxIi8+JiN4YTsJCTxwYXRoIGQ9Ik05MS4yLDM4LjVsNy41LDcuNmMxLjMsMS4zLDEuMywzLjEsMCw0LjNMOTEuMSw1OCIgY2xhc3M9InN0MSIvPiYjeGE7CTwvZz4mI3hhOwk8Zz4mI3hhOwkJPHBhdGggZD0iTTIwLDQ3LjhoMjguNHYtMjgiIGNsYXNzPSJzdDEiLz4mI3hhOwkJPHBhdGggZD0iTTM4LjgsMjguM2w3LjYtNy41YzEuMy0xLjMsMy4xLTEuMyw0LjMsMGw3LjcsNy42IiBjbGFzcz0ic3QxIi8+JiN4YTsJPC9nPiYjeGE7CTxnPiYjeGE7CQk8cGF0aCBkPSJNNDgsMTAwLjNWNzJIMjAiIGNsYXNzPSJzdDEiLz4mI3hhOwkJPHBhdGggZD0iTTI4LjUsODEuNUwyMSw3My45Yy0xLjMtMS4zLTEuMy0zLjEsMC00LjNsNy42LTcuNyIgY2xhc3M9InN0MSIvPiYjeGE7CTwvZz4mI3hhOwk8Zz4mI3hhOwkJPHBhdGggZD0iTTEwMCw3MS45SDcxLjZ2MjgiIGNsYXNzPSJzdDEiLz4mI3hhOwkJPHBhdGggZD0iTTgxLjIsOTEuNGwtNy42LDcuNWMtMS4zLDEuMy0zLjEsMS4zLTQuMywwbC03LjctNy42IiBjbGFzcz0ic3QxIi8+JiN4YTsJPC9nPiYjeGE7PC9nPiYjeGE7PC9zdmc+;fontSize=15;fontFamily=Google Sans;fontSource=https%3A%2F%2Ffonts.googleapis.com%2Fcss%3Ffamily%3DGoogle%2BSans;" vertex="1" parent="1">
            <mxGeometry x="761" y="339.5" width="75" height="75" as="geometry" />
          </mxCell>
        </object>
        <object label="" id="nBhBJxf1aetCIdoH2IMd-3">
          <mxCell style="shape=image;imageAlign=center;imageVerticalAlign=middle;labelPosition=left;align=right;verticalLabelPosition=top;spacingLeft=0;verticalAlign=bottom;spacingTop=0;spacing=0;editableCssRules=\.st[0-2]$;labelBackgroundColor=none;aspect=fixed;imageAspect=0;image=data:image/svg+xml,PHN2ZyB4bWxuczp4bGluaz0iaHR0cDovL3d3dy53My5vcmcvMTk5OS94bGluayIgeG1sbnM9Imh0dHA6Ly93d3cudzMub3JnLzIwMDAvc3ZnIiB4bWw6c3BhY2U9InByZXNlcnZlIiBzdHlsZT0iZW5hYmxlLWJhY2tncm91bmQ6bmV3IDAgMCAxMjAgMTIwO2VkaXRhYmxlQ3NzUnVsZXM9Lio7IiB2aWV3Qm94PSIwIDAgMTIwIDEyMCIgeT0iMHB4IiB4PSIwcHgiIGlkPSJMYXllcl8xIiB2ZXJzaW9uPSIxLjEiPiYjeGE7PHN0eWxlIHR5cGU9InRleHQvY3NzIj4mI3hhOwkuc3Qwe2ZpbGw6IzAwMTEzNTt9JiN4YTsJLnN0MXtmaWxsOm5vbmU7c3Ryb2tlOiNGRkZGRkY7c3Ryb2tlLXdpZHRoOjQ7c3Ryb2tlLWxpbmVjYXA6cm91bmQ7c3Ryb2tlLWxpbmVqb2luOnJvdW5kO3N0cm9rZS1taXRlcmxpbWl0OjEwO30mI3hhOwkuc3Qye2ZpbGw6I0ZGRkZGRjt9JiN4YTsJLnN0M3tmaWxsOm5vbmU7c3Ryb2tlOiNGRkZGRkY7c3Ryb2tlLXdpZHRoOjQ7c3Ryb2tlLW1pdGVybGltaXQ6MTA7fSYjeGE7CS5zdDR7ZmlsbDpub25lO3N0cm9rZTojRkZGRkZGO3N0cm9rZS13aWR0aDo0O3N0cm9rZS1saW5lY2FwOnJvdW5kO3N0cm9rZS1saW5lam9pbjpyb3VuZDt9JiN4YTsJLnN0NXtmaWxsOiNGRkZGRkY7c3Ryb2tlOiNGRkZGRkY7c3Ryb2tlLXdpZHRoOjQ7c3Ryb2tlLWxpbmVjYXA6cm91bmQ7c3Ryb2tlLWxpbmVqb2luOnJvdW5kO3N0cm9rZS1taXRlcmxpbWl0OjEwO30mI3hhOwkuc3Q2e2ZpbGw6bm9uZTtzdHJva2U6I0ZGRkZGRjtzdHJva2Utd2lkdGg6NC4yMzMzO3N0cm9rZS1saW5lY2FwOnJvdW5kO3N0cm9rZS1saW5lam9pbjpyb3VuZDtzdHJva2UtbWl0ZXJsaW1pdDoxMDt9JiN4YTsJLnN0N3tmaWxsOm5vbmU7c3Ryb2tlOiNGRkZGRkY7c3Ryb2tlLXdpZHRoOjQ7c3Ryb2tlLWxpbmVjYXA6cm91bmQ7c3Ryb2tlLW1pdGVybGltaXQ6MTA7fSYjeGE7CS5zdDh7ZmlsbDojRkZGRkZGO3N0cm9rZTojRkZGRkZGO3N0cm9rZS13aWR0aDo0O3N0cm9rZS1taXRlcmxpbWl0OjEwO30mI3hhOwkuc3Q5e2ZpbGw6I0ZGRkZGRjtzdHJva2U6I0ZGRkZGRjtzdHJva2Utd2lkdGg6NDt9JiN4YTsJLnN0MTB7ZmlsbDpub25lO3N0cm9rZTojRkZGRkZGO3N0cm9rZS13aWR0aDo0O30mI3hhOwkuc3QxMXtmaWxsOiMyNjI2MjY7c3Ryb2tlOiNGRkZGRkY7c3Ryb2tlLXdpZHRoOjQuMjMzMzt9JiN4YTsJLnN0MTJ7ZmlsbC1ydWxlOmV2ZW5vZGQ7Y2xpcC1ydWxlOmV2ZW5vZGQ7ZmlsbDpub25lO3N0cm9rZTojRkZGRkZGO3N0cm9rZS13aWR0aDo0O3N0cm9rZS1taXRlcmxpbWl0OjEwO30mI3hhOwkuc3QxM3tmaWxsLXJ1bGU6ZXZlbm9kZDtjbGlwLXJ1bGU6ZXZlbm9kZDtmaWxsOiNGRkZGRkY7c3Ryb2tlOiNGRkZGRkY7c3Ryb2tlLXdpZHRoOjQ7fSYjeGE7CS5zdDE0e2ZpbGw6bm9uZTtzdHJva2U6I0ZGRkZGRjtzdHJva2Utd2lkdGg6NC4yMzMzO3N0cm9rZS1saW5lY2FwOnJvdW5kO3N0cm9rZS1saW5lam9pbjpyb3VuZDt9JiN4YTsJLnN0MTV7ZmlsbDpub25lO3N0cm9rZTojRkZGRkZGO3N0cm9rZS13aWR0aDo0O3N0cm9rZS1saW5lY2FwOnJvdW5kO30mI3hhOwkuc3QxNntmaWxsOiNGRkZGRkY7c3Ryb2tlOiNGRkZGRkY7c3Ryb2tlLW1pdGVybGltaXQ6MTA7fSYjeGE7CS5zdDE3e2ZpbGw6IzI2MjYyNjtzdHJva2U6I0ZGRkZGRjtzdHJva2Utd2lkdGg6NDtzdHJva2UtbWl0ZXJsaW1pdDoxMDt9JiN4YTsJLnN0MTh7ZmlsbDojRkZGRkZGO3N0cm9rZTojRkZGRkZGO3N0cm9rZS13aWR0aDo0O3N0cm9rZS1saW5lY2FwOnJvdW5kO3N0cm9rZS1saW5lam9pbjpyb3VuZDt9JiN4YTs8L3N0eWxlPiYjeGE7PHJlY3QgaGVpZ2h0PSIxMjAiIHdpZHRoPSIxMjAiIGNsYXNzPSJzdDAiLz4mI3hhOzxnPiYjeGE7CTxnPiYjeGE7CQk8cGF0aCBkPSJNNzEuNywxOS43VjQ4aDI4IiBjbGFzcz0ic3QxIi8+JiN4YTsJCTxwYXRoIGQ9Ik05MS4yLDM4LjVsNy41LDcuNmMxLjMsMS4zLDEuMywzLjEsMCw0LjNMOTEuMSw1OCIgY2xhc3M9InN0MSIvPiYjeGE7CTwvZz4mI3hhOwk8Zz4mI3hhOwkJPHBhdGggZD0iTTIwLDQ3LjhoMjguNHYtMjgiIGNsYXNzPSJzdDEiLz4mI3hhOwkJPHBhdGggZD0iTTM4LjgsMjguM2w3LjYtNy41YzEuMy0xLjMsMy4xLTEuMyw0LjMsMGw3LjcsNy42IiBjbGFzcz0ic3QxIi8+JiN4YTsJPC9nPiYjeGE7CTxnPiYjeGE7CQk8cGF0aCBkPSJNNDgsMTAwLjNWNzJIMjAiIGNsYXNzPSJzdDEiLz4mI3hhOwkJPHBhdGggZD0iTTI4LjUsODEuNUwyMSw3My45Yy0xLjMtMS4zLTEuMy0zLjEsMC00LjNsNy42LTcuNyIgY2xhc3M9InN0MSIvPiYjeGE7CTwvZz4mI3hhOwk8Zz4mI3hhOwkJPHBhdGggZD0iTTEwMCw3MS45SDcxLjZ2MjgiIGNsYXNzPSJzdDEiLz4mI3hhOwkJPHBhdGggZD0iTTgxLjIsOTEuNGwtNy42LDcuNWMtMS4zLDEuMy0zLjEsMS4zLTQuMywwbC03LjctNy42IiBjbGFzcz0ic3QxIi8+JiN4YTsJPC9nPiYjeGE7PC9nPiYjeGE7PC9zdmc+;fontSize=15;fontFamily=Google Sans;fontSource=https%3A%2F%2Ffonts.googleapis.com%2Fcss%3Ffamily%3DGoogle%2BSans;" vertex="1" parent="1">
            <mxGeometry x="911" y="339.5" width="75" height="75" as="geometry" />
          </mxCell>
        </object>
        <object label="" id="nBhBJxf1aetCIdoH2IMd-1">
          <mxCell style="shape=image;imageAlign=center;imageVerticalAlign=middle;labelPosition=left;align=right;verticalLabelPosition=top;spacingLeft=0;verticalAlign=bottom;spacingTop=0;spacing=0;editableCssRules=\.st[0-2]$;labelBackgroundColor=none;aspect=fixed;imageAspect=0;image=data:image/svg+xml,PHN2ZyB4bWxuczp4bGluaz0iaHR0cDovL3d3dy53My5vcmcvMTk5OS94bGluayIgeG1sbnM9Imh0dHA6Ly93d3cudzMub3JnLzIwMDAvc3ZnIiB4bWw6c3BhY2U9InByZXNlcnZlIiBzdHlsZT0iZW5hYmxlLWJhY2tncm91bmQ6bmV3IDAgMCAxMjAgMTIwO2VkaXRhYmxlQ3NzUnVsZXM9Lio7IiB2aWV3Qm94PSIwIDAgMTIwIDEyMCIgeT0iMHB4IiB4PSIwcHgiIGlkPSJMYXllcl8xIiB2ZXJzaW9uPSIxLjEiPiYjeGE7PHN0eWxlIHR5cGU9InRleHQvY3NzIj4mI3hhOwkuc3Qwe2ZpbGw6IzAwMTEzNTt9JiN4YTsJLnN0MXtmaWxsOm5vbmU7c3Ryb2tlOiNGRkZGRkY7c3Ryb2tlLXdpZHRoOjQ7c3Ryb2tlLWxpbmVjYXA6cm91bmQ7c3Ryb2tlLWxpbmVqb2luOnJvdW5kO3N0cm9rZS1taXRlcmxpbWl0OjEwO30mI3hhOwkuc3Qye2ZpbGw6I0ZGRkZGRjt9JiN4YTsJLnN0M3tmaWxsOm5vbmU7c3Ryb2tlOiNGRkZGRkY7c3Ryb2tlLXdpZHRoOjQ7c3Ryb2tlLW1pdGVybGltaXQ6MTA7fSYjeGE7CS5zdDR7ZmlsbDpub25lO3N0cm9rZTojRkZGRkZGO3N0cm9rZS13aWR0aDo0O3N0cm9rZS1saW5lY2FwOnJvdW5kO3N0cm9rZS1saW5lam9pbjpyb3VuZDt9JiN4YTsJLnN0NXtmaWxsOiNGRkZGRkY7c3Ryb2tlOiNGRkZGRkY7c3Ryb2tlLXdpZHRoOjQ7c3Ryb2tlLWxpbmVjYXA6cm91bmQ7c3Ryb2tlLWxpbmVqb2luOnJvdW5kO3N0cm9rZS1taXRlcmxpbWl0OjEwO30mI3hhOwkuc3Q2e2ZpbGw6bm9uZTtzdHJva2U6I0ZGRkZGRjtzdHJva2Utd2lkdGg6NC4yMzMzO3N0cm9rZS1saW5lY2FwOnJvdW5kO3N0cm9rZS1saW5lam9pbjpyb3VuZDtzdHJva2UtbWl0ZXJsaW1pdDoxMDt9JiN4YTsJLnN0N3tmaWxsOm5vbmU7c3Ryb2tlOiNGRkZGRkY7c3Ryb2tlLXdpZHRoOjQ7c3Ryb2tlLWxpbmVjYXA6cm91bmQ7c3Ryb2tlLW1pdGVybGltaXQ6MTA7fSYjeGE7CS5zdDh7ZmlsbDojRkZGRkZGO3N0cm9rZTojRkZGRkZGO3N0cm9rZS13aWR0aDo0O3N0cm9rZS1taXRlcmxpbWl0OjEwO30mI3hhOwkuc3Q5e2ZpbGw6I0ZGRkZGRjtzdHJva2U6I0ZGRkZGRjtzdHJva2Utd2lkdGg6NDt9JiN4YTsJLnN0MTB7ZmlsbDpub25lO3N0cm9rZTojRkZGRkZGO3N0cm9rZS13aWR0aDo0O30mI3hhOwkuc3QxMXtmaWxsOiMyNjI2MjY7c3Ryb2tlOiNGRkZGRkY7c3Ryb2tlLXdpZHRoOjQuMjMzMzt9JiN4YTsJLnN0MTJ7ZmlsbC1ydWxlOmV2ZW5vZGQ7Y2xpcC1ydWxlOmV2ZW5vZGQ7ZmlsbDpub25lO3N0cm9rZTojRkZGRkZGO3N0cm9rZS13aWR0aDo0O3N0cm9rZS1taXRlcmxpbWl0OjEwO30mI3hhOwkuc3QxM3tmaWxsLXJ1bGU6ZXZlbm9kZDtjbGlwLXJ1bGU6ZXZlbm9kZDtmaWxsOiNGRkZGRkY7c3Ryb2tlOiNGRkZGRkY7c3Ryb2tlLXdpZHRoOjQ7fSYjeGE7CS5zdDE0e2ZpbGw6bm9uZTtzdHJva2U6I0ZGRkZGRjtzdHJva2Utd2lkdGg6NC4yMzMzO3N0cm9rZS1saW5lY2FwOnJvdW5kO3N0cm9rZS1saW5lam9pbjpyb3VuZDt9JiN4YTsJLnN0MTV7ZmlsbDpub25lO3N0cm9rZTojRkZGRkZGO3N0cm9rZS13aWR0aDo0O3N0cm9rZS1saW5lY2FwOnJvdW5kO30mI3hhOwkuc3QxNntmaWxsOiNGRkZGRkY7c3Ryb2tlOiNGRkZGRkY7c3Ryb2tlLW1pdGVybGltaXQ6MTA7fSYjeGE7CS5zdDE3e2ZpbGw6IzI2MjYyNjtzdHJva2U6I0ZGRkZGRjtzdHJva2Utd2lkdGg6NDtzdHJva2UtbWl0ZXJsaW1pdDoxMDt9JiN4YTsJLnN0MTh7ZmlsbDojRkZGRkZGO3N0cm9rZTojRkZGRkZGO3N0cm9rZS13aWR0aDo0O3N0cm9rZS1saW5lY2FwOnJvdW5kO3N0cm9rZS1saW5lam9pbjpyb3VuZDt9JiN4YTs8L3N0eWxlPiYjeGE7PHJlY3QgaGVpZ2h0PSIxMjAiIHdpZHRoPSIxMjAiIGNsYXNzPSJzdDAiLz4mI3hhOzxnPiYjeGE7CTxnPiYjeGE7CQk8cGF0aCBkPSJNNzEuNywxOS43VjQ4aDI4IiBjbGFzcz0ic3QxIi8+JiN4YTsJCTxwYXRoIGQ9Ik05MS4yLDM4LjVsNy41LDcuNmMxLjMsMS4zLDEuMywzLjEsMCw0LjNMOTEuMSw1OCIgY2xhc3M9InN0MSIvPiYjeGE7CTwvZz4mI3hhOwk8Zz4mI3hhOwkJPHBhdGggZD0iTTIwLDQ3LjhoMjguNHYtMjgiIGNsYXNzPSJzdDEiLz4mI3hhOwkJPHBhdGggZD0iTTM4LjgsMjguM2w3LjYtNy41YzEuMy0xLjMsMy4xLTEuMyw0LjMsMGw3LjcsNy42IiBjbGFzcz0ic3QxIi8+JiN4YTsJPC9nPiYjeGE7CTxnPiYjeGE7CQk8cGF0aCBkPSJNNDgsMTAwLjNWNzJIMjAiIGNsYXNzPSJzdDEiLz4mI3hhOwkJPHBhdGggZD0iTTI4LjUsODEuNUwyMSw3My45Yy0xLjMtMS4zLTEuMy0zLjEsMC00LjNsNy42LTcuNyIgY2xhc3M9InN0MSIvPiYjeGE7CTwvZz4mI3hhOwk8Zz4mI3hhOwkJPHBhdGggZD0iTTEwMCw3MS45SDcxLjZ2MjgiIGNsYXNzPSJzdDEiLz4mI3hhOwkJPHBhdGggZD0iTTgxLjIsOTEuNGwtNy42LDcuNWMtMS4zLDEuMy0zLjEsMS4zLTQuMywwbC03LjctNy42IiBjbGFzcz0ic3QxIi8+JiN4YTsJPC9nPiYjeGE7PC9nPiYjeGE7PC9zdmc+;fontSize=15;fontFamily=Google Sans;fontSource=https%3A%2F%2Ffonts.googleapis.com%2Fcss%3Ffamily%3DGoogle%2BSans;" vertex="1" parent="1">
            <mxGeometry x="836" y="164.5" width="75" height="75" as="geometry" />
          </mxCell>
        </object>
        <mxCell id="EuToz_2NqBail7a9XU0W-1" value="&lt;p style=&quot;line-height: 70%;&quot;&gt;mirror1&lt;br&gt;&lt;font color=&quot;#98a2ae&quot; style=&quot;font-size: 11px;&quot;&gt;(mirror destination)&lt;/font&gt;&lt;/p&gt;" style="text;html=1;align=center;verticalAlign=middle;resizable=0;points=[];autosize=1;fontSize=16;fontFamily=Google Sans;fontStyle=0;fontColor=#FFFFFF;fontSource=https%3A%2F%2Ffonts.googleapis.com%2Fcss%3Ffamily%3DGoogle%2BSans;spacing=0;spacingBottom=-2;spacingRight=-1;spacingTop=-2;" vertex="1" parent="1">
          <mxGeometry x="555" y="402.5" width="107" height="56" as="geometry" />
        </mxCell>
      </root>
    </mxGraphModel>
  </diagram>
  <diagram name="1" id="eGoLkRZ1txEC5OdwEta4">
    <mxGraphModel dx="922" dy="513" grid="0" gridSize="1" guides="1" tooltips="1" connect="1" arrows="1" fold="1" page="1" pageScale="1" pageWidth="3300" pageHeight="4681" background="#4D5766" math="0" shadow="0">
      <root>
        <mxCell id="IzOKqjtIy7IdpCucFaZ0-0" />
        <mxCell id="IzOKqjtIy7IdpCucFaZ0-1" parent="IzOKqjtIy7IdpCucFaZ0-0" />
        <mxCell id="19UwvXmJP_3f0buhCT2u-2" value="" style="endArrow=none;html=1;shadow=0;strokeWidth=4;fillColor=#666666;fontFamily=nasa;fontSize=18;fontColor=#FFFFFF;strokeColor=#001135;" edge="1" parent="IzOKqjtIy7IdpCucFaZ0-1">
          <mxGeometry width="50" height="50" relative="1" as="geometry">
            <mxPoint x="698" y="493" as="sourcePoint" />
            <mxPoint x="946" y="493" as="targetPoint" />
          </mxGeometry>
        </mxCell>
        <mxCell id="19UwvXmJP_3f0buhCT2u-3" value="&lt;font color=&quot;#ffffff&quot; style=&quot;font-size: 16px;&quot;&gt;L2 domain&lt;/font&gt;" style="text;html=1;align=right;verticalAlign=middle;resizable=0;points=[];autosize=1;fontSize=16;fontFamily=Google Sans;fontColor=#001135;fontSource=https%3A%2F%2Ffonts.googleapis.com%2Fcss%3Ffamily%3DGoogle%2BSans;" vertex="1" parent="IzOKqjtIy7IdpCucFaZ0-1">
          <mxGeometry x="585" y="477" width="92" height="31" as="geometry" />
        </mxCell>
        <object label="" id="nXXSnq0t8kz5V5z_-vx_-0">
          <mxCell style="shape=image;imageAlign=center;imageVerticalAlign=middle;labelPosition=left;align=right;verticalLabelPosition=top;spacingLeft=0;verticalAlign=bottom;spacingTop=0;spacing=0;editableCssRules=\.st[0-2]$;labelBackgroundColor=none;aspect=fixed;imageAspect=0;image=data:image/svg+xml,PHN2ZyB4bWxuczp4bGluaz0iaHR0cDovL3d3dy53My5vcmcvMTk5OS94bGluayIgeG1sbnM9Imh0dHA6Ly93d3cudzMub3JnLzIwMDAvc3ZnIiB4bWw6c3BhY2U9InByZXNlcnZlIiBzdHlsZT0iZW5hYmxlLWJhY2tncm91bmQ6bmV3IDAgMCAxMjAgMTIwOyIgdmlld0JveD0iMCAwIDEyMCAxMjAiIHk9IjBweCIgeD0iMHB4IiBpZD0iTGF5ZXJfMSIgdmVyc2lvbj0iMS4xIj4mI3hhOzxzdHlsZSB0eXBlPSJ0ZXh0L2NzcyI+LnN0MCB7IGZpbGw6IHJnYigxOCwgNjUsIDE0NSk7IH0gLnN0MSB7IGZpbGw6IG5vbmU7IHN0cm9rZTogcmdiKDI1NSwgMjU1LCAyNTUpOyBzdHJva2Utd2lkdGg6IDQ7IHN0cm9rZS1saW5lY2FwOiByb3VuZDsgc3Ryb2tlLWxpbmVqb2luOiByb3VuZDsgc3Ryb2tlLW1pdGVybGltaXQ6IDEwOyB9IC5zdDIgeyBmaWxsOiByZ2IoMjU1LCAyNTUsIDI1NSk7IH0gLnN0MyB7IGZpbGw6IG5vbmU7IHN0cm9rZTogcmdiKDI1NSwgMjU1LCAyNTUpOyBzdHJva2Utd2lkdGg6IDQ7IHN0cm9rZS1taXRlcmxpbWl0OiAxMDsgfSAuc3Q0IHsgZmlsbDogbm9uZTsgc3Ryb2tlOiByZ2IoMjU1LCAyNTUsIDI1NSk7IHN0cm9rZS13aWR0aDogNDsgc3Ryb2tlLWxpbmVjYXA6IHJvdW5kOyBzdHJva2UtbGluZWpvaW46IHJvdW5kOyB9IC5zdDUgeyBmaWxsOiByZ2IoMjU1LCAyNTUsIDI1NSk7IHN0cm9rZTogcmdiKDI1NSwgMjU1LCAyNTUpOyBzdHJva2Utd2lkdGg6IDQ7IHN0cm9rZS1saW5lY2FwOiByb3VuZDsgc3Ryb2tlLWxpbmVqb2luOiByb3VuZDsgc3Ryb2tlLW1pdGVybGltaXQ6IDEwOyB9IC5zdDYgeyBmaWxsOiBub25lOyBzdHJva2U6IHJnYigyNTUsIDI1NSwgMjU1KTsgc3Ryb2tlLXdpZHRoOiA0LjIzMzM7IHN0cm9rZS1saW5lY2FwOiByb3VuZDsgc3Ryb2tlLWxpbmVqb2luOiByb3VuZDsgc3Ryb2tlLW1pdGVybGltaXQ6IDEwOyB9IC5zdDcgeyBmaWxsOiBub25lOyBzdHJva2U6IHJnYigyNTUsIDI1NSwgMjU1KTsgc3Ryb2tlLXdpZHRoOiA0OyBzdHJva2UtbGluZWNhcDogcm91bmQ7IHN0cm9rZS1taXRlcmxpbWl0OiAxMDsgfSAuc3Q4IHsgZmlsbDogcmdiKDI1NSwgMjU1LCAyNTUpOyBzdHJva2U6IHJnYigyNTUsIDI1NSwgMjU1KTsgc3Ryb2tlLXdpZHRoOiA0OyBzdHJva2UtbWl0ZXJsaW1pdDogMTA7IH0gLnN0OSB7IGZpbGw6IHJnYigyNTUsIDI1NSwgMjU1KTsgc3Ryb2tlOiByZ2IoMjU1LCAyNTUsIDI1NSk7IHN0cm9rZS13aWR0aDogNDsgfSAuc3QxMCB7IGZpbGw6IG5vbmU7IHN0cm9rZTogcmdiKDI1NSwgMjU1LCAyNTUpOyBzdHJva2Utd2lkdGg6IDQ7IH0gLnN0MTEgeyBmaWxsOiByZ2IoMzgsIDM4LCAzOCk7IHN0cm9rZTogcmdiKDI1NSwgMjU1LCAyNTUpOyBzdHJva2Utd2lkdGg6IDQuMjMzMzsgfSAuc3QxMiB7IGZpbGwtcnVsZTogZXZlbm9kZDsgY2xpcC1ydWxlOiBldmVub2RkOyBmaWxsOiBub25lOyBzdHJva2U6IHJnYigyNTUsIDI1NSwgMjU1KTsgc3Ryb2tlLXdpZHRoOiA0OyBzdHJva2UtbWl0ZXJsaW1pdDogMTA7IH0gLnN0MTMgeyBmaWxsLXJ1bGU6IGV2ZW5vZGQ7IGNsaXAtcnVsZTogZXZlbm9kZDsgZmlsbDogcmdiKDI1NSwgMjU1LCAyNTUpOyBzdHJva2U6IHJnYigyNTUsIDI1NSwgMjU1KTsgc3Ryb2tlLXdpZHRoOiA0OyB9IC5zdDE0IHsgZmlsbDogbm9uZTsgc3Ryb2tlOiByZ2IoMjU1LCAyNTUsIDI1NSk7IHN0cm9rZS13aWR0aDogNC4yMzMzOyBzdHJva2UtbGluZWNhcDogcm91bmQ7IHN0cm9rZS1saW5lam9pbjogcm91bmQ7IH0gLnN0MTUgeyBmaWxsOiBub25lOyBzdHJva2U6IHJnYigyNTUsIDI1NSwgMjU1KTsgc3Ryb2tlLXdpZHRoOiA0OyBzdHJva2UtbGluZWNhcDogcm91bmQ7IH0gLnN0MTYgeyBmaWxsOiByZ2IoMjU1LCAyNTUsIDI1NSk7IHN0cm9rZTogcmdiKDI1NSwgMjU1LCAyNTUpOyBzdHJva2UtbWl0ZXJsaW1pdDogMTA7IH0gLnN0MTcgeyBmaWxsOiByZ2IoMzgsIDM4LCAzOCk7IHN0cm9rZTogcmdiKDI1NSwgMjU1LCAyNTUpOyBzdHJva2Utd2lkdGg6IDQ7IHN0cm9rZS1taXRlcmxpbWl0OiAxMDsgfSAuc3QxOCB7IGZpbGw6IHJnYigyNTUsIDI1NSwgMjU1KTsgc3Ryb2tlOiByZ2IoMjU1LCAyNTUsIDI1NSk7IHN0cm9rZS13aWR0aDogNDsgc3Ryb2tlLWxpbmVjYXA6IHJvdW5kOyBzdHJva2UtbGluZWpvaW46IHJvdW5kOyB9IDwvc3R5bGU+JiN4YTs8cmVjdCBoZWlnaHQ9IjEyMCIgd2lkdGg9IjEyMCIgY2xhc3M9InN0MCIvPiYjeGE7PGc+JiN4YTsJPHBhdGggZD0iTTEwMCw5MS4xSDIwSDEwMHogTTg5LjEsMzIuNWMwLTAuNSwwLTEtMC4yLTEuNGMtMC4yLTAuNS0wLjQtMC45LTAuOC0xLjJjLTAuMy0wLjMtMC44LTAuNi0xLjItMC44JiMxMDsmIzk7JiM5O2MtMC41LTAuMi0wLjktMC4yLTEuNC0wLjJIMzQuNmMtMC41LDAtMSwwLTEuNCwwLjJjLTAuNSwwLjItMC45LDAuNC0xLjIsMC44Yy0wLjMsMC4zLTAuNiwwLjgtMC44LDEuMmMtMC4yLDAuNS0wLjIsMC45LTAuMiwxLjQmIzEwOyYjOTsmIzk7Vjc2aDU4LjJWMzIuNXoiIGNsYXNzPSJzdDQiLz4mI3hhOzwvZz4mI3hhOzwvc3ZnPg==;fontSize=15;fontFamily=Google Sans;fontSource=https%3A%2F%2Ffonts.googleapis.com%2Fcss%3Ffamily%3DGoogle%2BSans;" vertex="1" parent="IzOKqjtIy7IdpCucFaZ0-1">
            <mxGeometry x="693" y="568" width="75" height="75" as="geometry" />
          </mxCell>
        </object>
        <object label="" id="nXXSnq0t8kz5V5z_-vx_-1">
          <mxCell style="shape=image;imageAlign=center;imageVerticalAlign=middle;labelPosition=left;align=right;verticalLabelPosition=top;spacingLeft=0;verticalAlign=bottom;spacingTop=0;spacing=0;editableCssRules=\.st[0-2]$;labelBackgroundColor=none;aspect=fixed;imageAspect=0;image=data:image/svg+xml,PHN2ZyB4bWxuczp4bGluaz0iaHR0cDovL3d3dy53My5vcmcvMTk5OS94bGluayIgeG1sbnM9Imh0dHA6Ly93d3cudzMub3JnLzIwMDAvc3ZnIiB4bWw6c3BhY2U9InByZXNlcnZlIiBzdHlsZT0iZW5hYmxlLWJhY2tncm91bmQ6bmV3IDAgMCAxMjAgMTIwOyIgdmlld0JveD0iMCAwIDEyMCAxMjAiIHk9IjBweCIgeD0iMHB4IiBpZD0iTGF5ZXJfMSIgdmVyc2lvbj0iMS4xIj4mI3hhOzxzdHlsZSB0eXBlPSJ0ZXh0L2NzcyI+LnN0MCB7IGZpbGw6IHJnYigxOCwgNjUsIDE0NSk7IH0gLnN0MSB7IGZpbGw6IG5vbmU7IHN0cm9rZTogcmdiKDI1NSwgMjU1LCAyNTUpOyBzdHJva2Utd2lkdGg6IDQ7IHN0cm9rZS1saW5lY2FwOiByb3VuZDsgc3Ryb2tlLWxpbmVqb2luOiByb3VuZDsgc3Ryb2tlLW1pdGVybGltaXQ6IDEwOyB9IC5zdDIgeyBmaWxsOiByZ2IoMjU1LCAyNTUsIDI1NSk7IH0gLnN0MyB7IGZpbGw6IG5vbmU7IHN0cm9rZTogcmdiKDI1NSwgMjU1LCAyNTUpOyBzdHJva2Utd2lkdGg6IDQ7IHN0cm9rZS1taXRlcmxpbWl0OiAxMDsgfSAuc3Q0IHsgZmlsbDogbm9uZTsgc3Ryb2tlOiByZ2IoMjU1LCAyNTUsIDI1NSk7IHN0cm9rZS13aWR0aDogNDsgc3Ryb2tlLWxpbmVjYXA6IHJvdW5kOyBzdHJva2UtbGluZWpvaW46IHJvdW5kOyB9IC5zdDUgeyBmaWxsOiByZ2IoMjU1LCAyNTUsIDI1NSk7IHN0cm9rZTogcmdiKDI1NSwgMjU1LCAyNTUpOyBzdHJva2Utd2lkdGg6IDQ7IHN0cm9rZS1saW5lY2FwOiByb3VuZDsgc3Ryb2tlLWxpbmVqb2luOiByb3VuZDsgc3Ryb2tlLW1pdGVybGltaXQ6IDEwOyB9IC5zdDYgeyBmaWxsOiBub25lOyBzdHJva2U6IHJnYigyNTUsIDI1NSwgMjU1KTsgc3Ryb2tlLXdpZHRoOiA0LjIzMzM7IHN0cm9rZS1saW5lY2FwOiByb3VuZDsgc3Ryb2tlLWxpbmVqb2luOiByb3VuZDsgc3Ryb2tlLW1pdGVybGltaXQ6IDEwOyB9IC5zdDcgeyBmaWxsOiBub25lOyBzdHJva2U6IHJnYigyNTUsIDI1NSwgMjU1KTsgc3Ryb2tlLXdpZHRoOiA0OyBzdHJva2UtbGluZWNhcDogcm91bmQ7IHN0cm9rZS1taXRlcmxpbWl0OiAxMDsgfSAuc3Q4IHsgZmlsbDogcmdiKDI1NSwgMjU1LCAyNTUpOyBzdHJva2U6IHJnYigyNTUsIDI1NSwgMjU1KTsgc3Ryb2tlLXdpZHRoOiA0OyBzdHJva2UtbWl0ZXJsaW1pdDogMTA7IH0gLnN0OSB7IGZpbGw6IHJnYigyNTUsIDI1NSwgMjU1KTsgc3Ryb2tlOiByZ2IoMjU1LCAyNTUsIDI1NSk7IHN0cm9rZS13aWR0aDogNDsgfSAuc3QxMCB7IGZpbGw6IG5vbmU7IHN0cm9rZTogcmdiKDI1NSwgMjU1LCAyNTUpOyBzdHJva2Utd2lkdGg6IDQ7IH0gLnN0MTEgeyBmaWxsOiByZ2IoMzgsIDM4LCAzOCk7IHN0cm9rZTogcmdiKDI1NSwgMjU1LCAyNTUpOyBzdHJva2Utd2lkdGg6IDQuMjMzMzsgfSAuc3QxMiB7IGZpbGwtcnVsZTogZXZlbm9kZDsgY2xpcC1ydWxlOiBldmVub2RkOyBmaWxsOiBub25lOyBzdHJva2U6IHJnYigyNTUsIDI1NSwgMjU1KTsgc3Ryb2tlLXdpZHRoOiA0OyBzdHJva2UtbWl0ZXJsaW1pdDogMTA7IH0gLnN0MTMgeyBmaWxsLXJ1bGU6IGV2ZW5vZGQ7IGNsaXAtcnVsZTogZXZlbm9kZDsgZmlsbDogcmdiKDI1NSwgMjU1LCAyNTUpOyBzdHJva2U6IHJnYigyNTUsIDI1NSwgMjU1KTsgc3Ryb2tlLXdpZHRoOiA0OyB9IC5zdDE0IHsgZmlsbDogbm9uZTsgc3Ryb2tlOiByZ2IoMjU1LCAyNTUsIDI1NSk7IHN0cm9rZS13aWR0aDogNC4yMzMzOyBzdHJva2UtbGluZWNhcDogcm91bmQ7IHN0cm9rZS1saW5lam9pbjogcm91bmQ7IH0gLnN0MTUgeyBmaWxsOiBub25lOyBzdHJva2U6IHJnYigyNTUsIDI1NSwgMjU1KTsgc3Ryb2tlLXdpZHRoOiA0OyBzdHJva2UtbGluZWNhcDogcm91bmQ7IH0gLnN0MTYgeyBmaWxsOiByZ2IoMjU1LCAyNTUsIDI1NSk7IHN0cm9rZTogcmdiKDI1NSwgMjU1LCAyNTUpOyBzdHJva2UtbWl0ZXJsaW1pdDogMTA7IH0gLnN0MTcgeyBmaWxsOiByZ2IoMzgsIDM4LCAzOCk7IHN0cm9rZTogcmdiKDI1NSwgMjU1LCAyNTUpOyBzdHJva2Utd2lkdGg6IDQ7IHN0cm9rZS1taXRlcmxpbWl0OiAxMDsgfSAuc3QxOCB7IGZpbGw6IHJnYigyNTUsIDI1NSwgMjU1KTsgc3Ryb2tlOiByZ2IoMjU1LCAyNTUsIDI1NSk7IHN0cm9rZS13aWR0aDogNDsgc3Ryb2tlLWxpbmVjYXA6IHJvdW5kOyBzdHJva2UtbGluZWpvaW46IHJvdW5kOyB9IDwvc3R5bGU+JiN4YTs8cmVjdCBoZWlnaHQ9IjEyMCIgd2lkdGg9IjEyMCIgY2xhc3M9InN0MCIvPiYjeGE7PGc+JiN4YTsJPHBhdGggZD0iTTEwMCw5MS4xSDIwSDEwMHogTTg5LjEsMzIuNWMwLTAuNSwwLTEtMC4yLTEuNGMtMC4yLTAuNS0wLjQtMC45LTAuOC0xLjJjLTAuMy0wLjMtMC44LTAuNi0xLjItMC44JiMxMDsmIzk7JiM5O2MtMC41LTAuMi0wLjktMC4yLTEuNC0wLjJIMzQuNmMtMC41LDAtMSwwLTEuNCwwLjJjLTAuNSwwLjItMC45LDAuNC0xLjIsMC44Yy0wLjMsMC4zLTAuNiwwLjgtMC44LDEuMmMtMC4yLDAuNS0wLjIsMC45LTAuMiwxLjQmIzEwOyYjOTsmIzk7Vjc2aDU4LjJWMzIuNXoiIGNsYXNzPSJzdDQiLz4mI3hhOzwvZz4mI3hhOzwvc3ZnPg==;fontSize=15;fontFamily=Google Sans;fontSource=https%3A%2F%2Ffonts.googleapis.com%2Fcss%3Ffamily%3DGoogle%2BSans;" vertex="1" parent="IzOKqjtIy7IdpCucFaZ0-1">
            <mxGeometry x="886" y="568" width="75" height="75" as="geometry" />
          </mxCell>
        </object>
        <mxCell id="nXXSnq0t8kz5V5z_-vx_-2" value="client1" style="text;html=1;align=center;verticalAlign=middle;resizable=0;points=[];autosize=1;fontSize=16;fontFamily=Google Sans;fontStyle=0;fontColor=#FFFFFF;fontSource=https%3A%2F%2Ffonts.googleapis.com%2Fcss%3Ffamily%3DGoogle%2BSans;" vertex="1" parent="IzOKqjtIy7IdpCucFaZ0-1">
          <mxGeometry x="699" y="637" width="63" height="31" as="geometry" />
        </mxCell>
        <mxCell id="nXXSnq0t8kz5V5z_-vx_-3" value="client2" style="text;html=1;align=center;verticalAlign=middle;resizable=0;points=[];autosize=1;fontSize=16;fontFamily=Google Sans;fontStyle=0;fontColor=#FFFFFF;fontSource=https%3A%2F%2Ffonts.googleapis.com%2Fcss%3Ffamily%3DGoogle%2BSans;" vertex="1" parent="IzOKqjtIy7IdpCucFaZ0-1">
          <mxGeometry x="891" y="637" width="65" height="31" as="geometry" />
        </mxCell>
        <mxCell id="19UwvXmJP_3f0buhCT2u-4" style="rounded=0;orthogonalLoop=1;jettySize=auto;html=1;exitX=0.5;exitY=0;exitDx=0;exitDy=0;startSize=4;endArrow=oval;endFill=1;endSize=4;fontFamily=Manrope;fontSize=8;strokeColor=#98A2AE;fontSource=https%3A%2F%2Ffonts.googleapis.com%2Fcss%3Ffamily%3DManrope;startArrow=oval;startFill=1;strokeWidth=2;" edge="1" parent="IzOKqjtIy7IdpCucFaZ0-1" source="nXXSnq0t8kz5V5z_-vx_-0">
          <mxGeometry relative="1" as="geometry">
            <mxPoint x="741" y="551.29" as="sourcePoint" />
            <mxPoint x="731" y="493" as="targetPoint" />
          </mxGeometry>
        </mxCell>
        <mxCell id="nXXSnq0t8kz5V5z_-vx_-4" style="rounded=0;orthogonalLoop=1;jettySize=auto;html=1;exitX=0.5;exitY=0;exitDx=0;exitDy=0;startSize=4;endArrow=oval;endFill=1;endSize=4;fontFamily=Manrope;fontSize=8;strokeColor=#98A2AE;fontSource=https%3A%2F%2Ffonts.googleapis.com%2Fcss%3Ffamily%3DManrope;startArrow=oval;startFill=1;strokeWidth=2;" edge="1" parent="IzOKqjtIy7IdpCucFaZ0-1">
          <mxGeometry relative="1" as="geometry">
            <mxPoint x="923.33" y="568" as="sourcePoint" />
            <mxPoint x="923.33" y="493" as="targetPoint" />
          </mxGeometry>
        </mxCell>
        <mxCell id="xqgnOYVUP8wAFo1tQ0cT-0" value="&lt;font style=&quot;font-size: 11px;&quot; data-font-src=&quot;https://fonts.googleapis.com/css?family=JetBrains+Mono&quot;&gt;IP: 172.17.0.1&lt;br style=&quot;font-size: 11px;&quot;&gt;MAC:&amp;nbsp;00:C1:AB:00:00:01&lt;/font&gt;" style="text;html=1;align=center;verticalAlign=middle;resizable=0;points=[];autosize=1;fontSize=11;fontFamily=Fira Code;fontStyle=0;fontColor=#B3B3B3;fontSource=https%3A%2F%2Ffonts.googleapis.com%2Fcss%3Ffamily%3DFira%2BCode;" vertex="1" parent="IzOKqjtIy7IdpCucFaZ0-1">
          <mxGeometry x="645" y="661" width="163" height="38" as="geometry" />
        </mxCell>
        <mxCell id="xqgnOYVUP8wAFo1tQ0cT-1" value="&lt;font style=&quot;font-size: 11px;&quot; data-font-src=&quot;https://fonts.googleapis.com/css?family=JetBrains+Mono&quot;&gt;IP: 172.17.0.2&lt;br style=&quot;font-size: 11px;&quot;&gt;MAC:&amp;nbsp;00:C1:AB:00:00:02&lt;/font&gt;" style="text;html=1;align=center;verticalAlign=middle;resizable=0;points=[];autosize=1;fontSize=11;fontFamily=Fira Code;fontStyle=0;fontColor=#B3B3B3;fontSource=https%3A%2F%2Ffonts.googleapis.com%2Fcss%3Ffamily%3DFira%2BCode;" vertex="1" parent="IzOKqjtIy7IdpCucFaZ0-1">
          <mxGeometry x="842" y="661" width="163" height="38" as="geometry" />
        </mxCell>
      </root>
    </mxGraphModel>
  </diagram>
  <diagram name="2" id="wSCzioKrM8a9ElgwQ-WP">
    <mxGraphModel dx="619" dy="345" grid="1" gridSize="1" guides="1" tooltips="1" connect="1" arrows="1" fold="1" page="1" pageScale="1" pageWidth="3300" pageHeight="4681" background="#4D5766" math="0" shadow="0">
      <root>
        <mxCell id="f0xie_PAi6Rzn-Jpi4XW-0" />
        <mxCell id="f0xie_PAi6Rzn-Jpi4XW-1" parent="f0xie_PAi6Rzn-Jpi4XW-0" />
        <mxCell id="rOJwmIaKs-TXltAQaH8w-0" value="" style="rounded=0;whiteSpace=wrap;html=1;fontSize=12;align=center;fontFamily=Manrope;fontSource=https%3A%2F%2Ffonts.googleapis.com%2Fcss%3Ffamily%3DManrope;fontColor=#FFFFFF;dashed=1;strokeColor=none;fillColor=#DDE9F5;" vertex="1" parent="f0xie_PAi6Rzn-Jpi4XW-1">
          <mxGeometry x="727" y="520" width="125" height="37" as="geometry" />
        </mxCell>
        <mxCell id="rOJwmIaKs-TXltAQaH8w-1" value="&lt;span style=&quot;font-size: 10px;&quot;&gt;client1&lt;/span&gt;" style="rounded=0;whiteSpace=wrap;html=1;fontSize=10;align=center;fontFamily=Google Sans;fontSource=https%3A%2F%2Ffonts.googleapis.com%2Fcss%3Ffamily%3DGoogle%2BSans;dashed=1;strokeColor=none;fillColor=#98A2AE;fontColor=#FFFFFF;" vertex="1" parent="f0xie_PAi6Rzn-Jpi4XW-1">
          <mxGeometry x="727" y="557" width="125" height="14" as="geometry" />
        </mxCell>
        <mxCell id="rOJwmIaKs-TXltAQaH8w-2" value="" style="rounded=0;whiteSpace=wrap;html=1;fontSize=12;align=center;fontFamily=Google Sans;fontSource=https%3A%2F%2Ffonts.googleapis.com%2Fcss%3Ffamily%3DGoogle%2BSans;fontColor=#FFFFFF;dashed=1;strokeColor=none;fillColor=#273142;" vertex="1" parent="f0xie_PAi6Rzn-Jpi4XW-1">
          <mxGeometry x="688" y="352" width="179" height="150" as="geometry" />
        </mxCell>
        <mxCell id="rOJwmIaKs-TXltAQaH8w-3" value="&lt;span style=&quot;font-size: 10px&quot;&gt;leaf1&lt;/span&gt;" style="rounded=0;whiteSpace=wrap;html=1;fontSize=10;align=center;fontFamily=Google Sans;fontSource=https%3A%2F%2Ffonts.googleapis.com%2Fcss%3Ffamily%3DGoogle%2BSans;dashed=1;strokeColor=none;fontColor=#FFFFFF;fillColor=#001135;" vertex="1" parent="f0xie_PAi6Rzn-Jpi4XW-1">
          <mxGeometry x="688" y="338" width="179" height="14" as="geometry" />
        </mxCell>
        <mxCell id="rOJwmIaKs-TXltAQaH8w-4" value="&lt;p style=&quot;line-height: 60%&quot;&gt;&lt;br&gt;&lt;/p&gt;" style="rounded=0;whiteSpace=wrap;html=1;fontSize=12;align=left;strokeColor=none;fontFamily=Google Sans;fontSource=https%3A%2F%2Ffonts.googleapis.com%2Fcss%3Ffamily%3DGoogle%2BSans;fontColor=#DDE9F5;fillColor=#BEC8D2;" vertex="1" parent="f0xie_PAi6Rzn-Jpi4XW-1">
          <mxGeometry x="727.5" y="382.51" width="122.5" height="47" as="geometry" />
        </mxCell>
        <mxCell id="rOJwmIaKs-TXltAQaH8w-5" value="mirror instance" style="rounded=0;whiteSpace=wrap;html=1;fontSize=8;align=center;fontFamily=Google Sans;fontSource=https%3A%2F%2Ffonts.googleapis.com%2Fcss%3Ffamily%3DGoogle%2BSans;fontColor=#FFFFFF;fillColor=#98A2AE;rotation=0;strokeColor=none;horizontal=0;verticalAlign=middle;spacing=0;" vertex="1" parent="f0xie_PAi6Rzn-Jpi4XW-1">
          <mxGeometry x="707" y="382.51" width="20.5" height="47" as="geometry" />
        </mxCell>
        <mxCell id="rOJwmIaKs-TXltAQaH8w-6" value="ethernet-1/1" style="rounded=0;whiteSpace=wrap;html=1;fontSize=6;align=center;fontFamily=Google Sans;fontSource=https%3A%2F%2Ffonts.googleapis.com%2Fcss%3Ffamily%3DGoogle%2BSans;fontColor=#FFFFFF;fillColor=#98A2AE;rotation=90;strokeColor=none;horizontal=0;verticalAlign=middle;spacing=0;" vertex="1" parent="f0xie_PAi6Rzn-Jpi4XW-1">
          <mxGeometry x="785" y="469.96" width="12" height="45.03" as="geometry" />
        </mxCell>
        <mxCell id="rOJwmIaKs-TXltAQaH8w-7" value="&lt;font style=&quot;&quot;&gt;&lt;span style=&quot;font-size: 6px;&quot;&gt;subif 0&lt;/span&gt;&lt;br&gt;&lt;font style=&quot;font-size: 4px;&quot; color=&quot;#cfdded&quot;&gt;(bridged)&lt;/font&gt;&lt;br&gt;&lt;/font&gt;" style="rounded=0;whiteSpace=wrap;html=1;fontSize=7;align=center;fontFamily=Google Sans;fontSource=https%3A%2F%2Ffonts.googleapis.com%2Fcss%3Ffamily%3DGoogle%2BSans;fontColor=#FFFFFF;fillColor=#98A2AE;rotation=90;strokeColor=none;horizontal=0;verticalAlign=middle;spacing=0;" vertex="1" parent="f0xie_PAi6Rzn-Jpi4XW-1">
          <mxGeometry x="782.5" y="451" width="18" height="36" as="geometry" />
        </mxCell>
        <mxCell id="rOJwmIaKs-TXltAQaH8w-8" style="rounded=0;orthogonalLoop=1;jettySize=auto;html=1;startSize=6;endArrow=none;endFill=0;endSize=2;fontFamily=Google Sans;fontSize=8;strokeColor=#98A2AE;fontSource=https%3A%2F%2Ffonts.googleapis.com%2Fcss%3Ffamily%3DGoogle%2BSans;entryX=0.93;entryY=0.514;entryDx=0;entryDy=0;exitX=0;exitY=0.5;exitDx=0;exitDy=0;entryPerimeter=0;dashed=1;" edge="1" parent="f0xie_PAi6Rzn-Jpi4XW-1" source="rOJwmIaKs-TXltAQaH8w-6" target="rOJwmIaKs-TXltAQaH8w-7">
          <mxGeometry relative="1" as="geometry">
            <mxPoint x="819" y="521" as="sourcePoint" />
            <mxPoint x="819.0000000000001" y="497" as="targetPoint" />
            <Array as="points" />
          </mxGeometry>
        </mxCell>
        <mxCell id="rOJwmIaKs-TXltAQaH8w-9" style="rounded=0;orthogonalLoop=1;jettySize=auto;html=1;startSize=2;endArrow=oval;endFill=1;endSize=2;fontFamily=Manrope;fontSize=8;strokeColor=#98A2AE;fontSource=https%3A%2F%2Ffonts.googleapis.com%2Fcss%3Ffamily%3DManrope;entryX=0.434;entryY=0.013;entryDx=0;entryDy=0;exitX=1;exitY=0.5;exitDx=0;exitDy=0;entryPerimeter=0;startArrow=oval;startFill=1;" edge="1" parent="f0xie_PAi6Rzn-Jpi4XW-1" source="rOJwmIaKs-TXltAQaH8w-6" target="rOJwmIaKs-TXltAQaH8w-11">
          <mxGeometry relative="1" as="geometry">
            <mxPoint x="793.495" y="484.6250000000001" as="sourcePoint" />
            <mxPoint x="793.2600000000001" y="468.735" as="targetPoint" />
            <Array as="points" />
          </mxGeometry>
        </mxCell>
        <mxCell id="rOJwmIaKs-TXltAQaH8w-10" value="" style="group;spacing=0;" vertex="1" connectable="0" parent="f0xie_PAi6Rzn-Jpi4XW-1">
          <mxGeometry x="733" y="524" width="139" height="28" as="geometry" />
        </mxCell>
        <mxCell id="rOJwmIaKs-TXltAQaH8w-11" value="&lt;p style=&quot;line-height: 60%&quot;&gt;&lt;font data-font-src=&quot;https://fonts.googleapis.com/css?family=Google+Sans&quot; face=&quot;Google Sans&quot; style=&quot;line-height: 8px; font-size: 7px;&quot; color=&quot;#98a2ae&quot;&gt;IPv4:&lt;/font&gt;&lt;span style=&quot;font-size: 8px ; color: rgb(255 , 255 , 255)&quot;&gt;&amp;nbsp;&lt;/span&gt;&lt;font data-font-src=&quot;https://fonts.googleapis.com/css?family=Fira+Code&quot; style=&quot;&quot;&gt;&lt;font style=&quot;font-family: &amp;quot;Fira Code&amp;quot;; font-size: 7px;&quot; data-font-src=&quot;https://fonts.googleapis.com/css?family=JetBrains+Mono&quot; color=&quot;#ffffff&quot;&gt;172.17.0.1/24&lt;/font&gt;&lt;br&gt;&lt;span style=&quot;color: rgb(255, 255, 255);&quot;&gt;&lt;font face=&quot;Google Sans&quot; style=&quot;font-size: 7px;&quot; color=&quot;#98a2ae&quot;&gt;MAC:&lt;/font&gt;&lt;font style=&quot;font-size: 8px;&quot; face=&quot;manrope&quot;&gt;&amp;nbsp;&lt;/font&gt;&lt;/span&gt;&lt;font style=&quot;font-family: &amp;quot;Fira Code&amp;quot;; font-size: 7px;&quot; face=&quot;Fira Code&quot; data-font-src=&quot;https://fonts.googleapis.com/css?family=Fira+Code&quot; color=&quot;#ffffff&quot;&gt;00:C1:AB:00:00:01&lt;/font&gt;&lt;/font&gt;&lt;/p&gt;" style="rounded=0;whiteSpace=wrap;html=1;fontSize=12;align=left;strokeColor=none;fontFamily=Manrope;fontSource=https%3A%2F%2Ffonts.googleapis.com%2Fcss%3Ffamily%3DManrope;fontColor=#DDE9F5;fillColor=#BEC8D2;" vertex="1" parent="rOJwmIaKs-TXltAQaH8w-10">
          <mxGeometry x="16.5" width="96.5" height="28" as="geometry" />
        </mxCell>
        <mxCell id="rOJwmIaKs-TXltAQaH8w-12" value="eth1" style="rounded=0;whiteSpace=wrap;html=1;fontSize=8;align=center;fontFamily=Google Sans;fontSource=https%3A%2F%2Ffonts.googleapis.com%2Fcss%3Ffamily%3DGoogle%2BSans;fontColor=#FFFFFF;fillColor=#98A2AE;rotation=0;strokeColor=none;horizontal=0;verticalAlign=middle;spacing=0;" vertex="1" parent="rOJwmIaKs-TXltAQaH8w-10">
          <mxGeometry width="16.5" height="28" as="geometry" />
        </mxCell>
        <mxCell id="JFYFKdsw38Nuq7OfDvTV-0" value="ethernet-1/10" style="rounded=0;whiteSpace=wrap;html=1;fontSize=6;align=center;fontFamily=Google Sans;fontSource=https%3A%2F%2Ffonts.googleapis.com%2Fcss%3Ffamily%3DGoogle%2BSans;fontColor=#FFFFFF;fillColor=#98A2AE;rotation=0;strokeColor=none;horizontal=0;verticalAlign=middle;spacing=0;" vertex="1" parent="f0xie_PAi6Rzn-Jpi4XW-1">
          <mxGeometry x="695" y="446.49" width="12" height="45.03" as="geometry" />
        </mxCell>
        <mxCell id="JFYFKdsw38Nuq7OfDvTV-1" value="&lt;p style=&quot;line-height: 80%;&quot;&gt;&lt;font style=&quot;&quot;&gt;&lt;span style=&quot;font-size: 6px;&quot;&gt;subif 0&lt;/span&gt;&lt;br&gt;&lt;font style=&quot;font-size: 4px;&quot; color=&quot;#cfdded&quot;&gt;(local-mirr-dest)&lt;/font&gt;&lt;br&gt;&lt;/font&gt;&lt;/p&gt;" style="rounded=0;whiteSpace=wrap;html=1;fontSize=7;align=center;fontFamily=Google Sans;fontSource=https%3A%2F%2Ffonts.googleapis.com%2Fcss%3Ffamily%3DGoogle%2BSans;fontColor=#FFFFFF;fillColor=#98A2AE;rotation=90;strokeColor=none;horizontal=0;verticalAlign=middle;spacing=0;" vertex="1" parent="f0xie_PAi6Rzn-Jpi4XW-1">
          <mxGeometry x="723.5" y="452.5" width="18" height="33" as="geometry" />
        </mxCell>
        <mxCell id="JFYFKdsw38Nuq7OfDvTV-2" style="rounded=0;orthogonalLoop=1;jettySize=auto;html=1;startSize=6;endArrow=none;endFill=0;endSize=2;fontFamily=Google Sans;fontSize=8;strokeColor=#98A2AE;fontSource=https%3A%2F%2Ffonts.googleapis.com%2Fcss%3Ffamily%3DGoogle%2BSans;entryX=0.5;entryY=1;entryDx=0;entryDy=0;exitX=1;exitY=0.5;exitDx=0;exitDy=0;dashed=1;" edge="1" parent="f0xie_PAi6Rzn-Jpi4XW-1" source="JFYFKdsw38Nuq7OfDvTV-0" target="JFYFKdsw38Nuq7OfDvTV-1">
          <mxGeometry relative="1" as="geometry">
            <mxPoint x="817" y="505.49" as="sourcePoint" />
            <mxPoint x="817" y="496.49" as="targetPoint" />
            <Array as="points" />
          </mxGeometry>
        </mxCell>
        <mxCell id="UmC_Z1oVNT64iYWDzXb--1" value="" style="rounded=1;whiteSpace=wrap;html=1;fillColor=none;dashed=1;dashPattern=1 2;" vertex="1" parent="f0xie_PAi6Rzn-Jpi4XW-1">
          <mxGeometry x="736" y="396" width="48" height="27.61" as="geometry" />
        </mxCell>
        <mxCell id="wx6Il43JqDGFIxcRracV-0" value="&lt;font style=&quot;font-size: 8px;&quot;&gt;source&lt;/font&gt;" style="text;html=1;align=center;verticalAlign=middle;resizable=0;points=[];autosize=1;fontSize=8;fontFamily=Google Sans;fontStyle=0;fontColor=#FFFFFF;fontSource=https%3A%2F%2Ffonts.googleapis.com%2Fcss%3Ffamily%3DGoogle%2BSans;" vertex="1" parent="f0xie_PAi6Rzn-Jpi4XW-1">
          <mxGeometry x="738" y="378" width="44" height="23" as="geometry" />
        </mxCell>
        <mxCell id="wx6Il43JqDGFIxcRracV-1" value="" style="rounded=1;whiteSpace=wrap;html=1;fillColor=none;dashed=1;dashPattern=1 2;" vertex="1" parent="f0xie_PAi6Rzn-Jpi4XW-1">
          <mxGeometry x="794" y="396" width="48" height="27.61" as="geometry" />
        </mxCell>
        <mxCell id="wx6Il43JqDGFIxcRracV-2" value="&lt;font style=&quot;font-size: 8px;&quot;&gt;dest&lt;/font&gt;" style="text;html=1;align=center;verticalAlign=middle;resizable=0;points=[];autosize=1;fontSize=8;fontFamily=Google Sans;fontStyle=0;fontColor=#FFFFFF;fontSource=https%3A%2F%2Ffonts.googleapis.com%2Fcss%3Ffamily%3DGoogle%2BSans;" vertex="1" parent="f0xie_PAi6Rzn-Jpi4XW-1">
          <mxGeometry x="800" y="378" width="35" height="23" as="geometry" />
        </mxCell>
        <mxCell id="wx6Il43JqDGFIxcRracV-3" value="ethernet-1/1" style="rounded=0;whiteSpace=wrap;html=1;fontSize=6;align=center;fontFamily=Google Sans;fontSource=https%3A%2F%2Ffonts.googleapis.com%2Fcss%3Ffamily%3DGoogle%2BSans;fontColor=#FFFFFF;fillColor=#98A2AE;rotation=90;strokeColor=none;horizontal=0;verticalAlign=middle;spacing=0;" vertex="1" parent="f0xie_PAi6Rzn-Jpi4XW-1">
          <mxGeometry x="754" y="391.29" width="12" height="37.03" as="geometry" />
        </mxCell>
        <mxCell id="wx6Il43JqDGFIxcRracV-4" value="ethernet-1/10.0" style="rounded=0;whiteSpace=wrap;html=1;fontSize=6;align=center;fontFamily=Google Sans;fontSource=https%3A%2F%2Ffonts.googleapis.com%2Fcss%3Ffamily%3DGoogle%2BSans;fontColor=#FFFFFF;fillColor=#98A2AE;rotation=90;strokeColor=none;horizontal=0;verticalAlign=middle;spacing=0;" vertex="1" parent="f0xie_PAi6Rzn-Jpi4XW-1">
          <mxGeometry x="812" y="388.14" width="12" height="43.32" as="geometry" />
        </mxCell>
        <mxCell id="wx6Il43JqDGFIxcRracV-5" value="" style="rounded=0;whiteSpace=wrap;html=1;fontSize=12;align=center;fontFamily=Manrope;fontSource=https%3A%2F%2Ffonts.googleapis.com%2Fcss%3Ffamily%3DManrope;fontColor=#FFFFFF;dashed=1;strokeColor=none;fillColor=#DDE9F5;" vertex="1" parent="f0xie_PAi6Rzn-Jpi4XW-1">
          <mxGeometry x="602" y="450" width="58" height="37" as="geometry" />
        </mxCell>
        <mxCell id="wx6Il43JqDGFIxcRracV-6" value="&lt;span style=&quot;font-size: 10px;&quot;&gt;mirror1&lt;/span&gt;" style="rounded=0;whiteSpace=wrap;html=1;fontSize=10;align=center;fontFamily=Google Sans;fontSource=https%3A%2F%2Ffonts.googleapis.com%2Fcss%3Ffamily%3DGoogle%2BSans;dashed=1;strokeColor=none;fillColor=#98A2AE;fontColor=#FFFFFF;" vertex="1" parent="f0xie_PAi6Rzn-Jpi4XW-1">
          <mxGeometry x="602" y="487" width="58" height="14" as="geometry" />
        </mxCell>
        <mxCell id="wx6Il43JqDGFIxcRracV-9" value="eth1" style="rounded=0;whiteSpace=wrap;html=1;fontSize=8;align=center;fontFamily=Google Sans;fontSource=https%3A%2F%2Ffonts.googleapis.com%2Fcss%3Ffamily%3DGoogle%2BSans;fontColor=#FFFFFF;fillColor=#98A2AE;rotation=0;strokeColor=none;horizontal=0;verticalAlign=middle;spacing=0;" vertex="1" parent="f0xie_PAi6Rzn-Jpi4XW-1">
          <mxGeometry x="636" y="454" width="16.5" height="28" as="geometry" />
        </mxCell>
        <mxCell id="wx6Il43JqDGFIxcRracV-10" style="rounded=0;orthogonalLoop=1;jettySize=auto;html=1;startSize=2;endArrow=oval;endFill=1;endSize=2;fontFamily=Manrope;fontSize=8;strokeColor=#98A2AE;fontSource=https%3A%2F%2Ffonts.googleapis.com%2Fcss%3Ffamily%3DManrope;entryX=1;entryY=0.5;entryDx=0;entryDy=0;exitX=0;exitY=0.5;exitDx=0;exitDy=0;startArrow=oval;startFill=1;" edge="1" parent="f0xie_PAi6Rzn-Jpi4XW-1" source="JFYFKdsw38Nuq7OfDvTV-0" target="wx6Il43JqDGFIxcRracV-5">
          <mxGeometry relative="1" as="geometry">
            <mxPoint x="792" y="499" as="sourcePoint" />
            <mxPoint x="792" y="525" as="targetPoint" />
            <Array as="points" />
          </mxGeometry>
        </mxCell>
        <mxCell id="F71jltwF5Ors5r5_V6ys-0" value="" style="endArrow=none;html=1;dashed=1;dashPattern=1 1;fontFamily=Fira Code;fontSource=https%3A%2F%2Ffonts.googleapis.com%2Fcss%3Ffamily%3DFira%2BCode;fontSize=6;startSize=2;endSize=1;strokeWidth=2;fillColor=#BEC8D2;opacity=90;fontColor=#00C9FF;strokeColor=#00C9FF;entryX=0.5;entryY=1;entryDx=0;entryDy=0;exitX=0.5;exitY=0;exitDx=0;exitDy=0;" edge="1" parent="f0xie_PAi6Rzn-Jpi4XW-1" source="JFYFKdsw38Nuq7OfDvTV-1" target="rOJwmIaKs-TXltAQaH8w-6">
          <mxGeometry width="50" height="50" relative="1" as="geometry">
            <mxPoint x="716" y="628" as="sourcePoint" />
            <mxPoint x="762" y="628" as="targetPoint" />
            <Array as="points">
              <mxPoint x="762" y="468" />
              <mxPoint x="758" y="492" />
            </Array>
          </mxGeometry>
        </mxCell>
        <mxCell id="D6FQX8_cMb7jJ7mIvzqW-0" value="" style="endArrow=none;html=1;dashed=1;dashPattern=1 1;fontFamily=Fira Code;fontSource=https%3A%2F%2Ffonts.googleapis.com%2Fcss%3Ffamily%3DFira%2BCode;fontSize=6;startSize=2;endSize=1;strokeWidth=2;fillColor=#BEC8D2;opacity=80;fontColor=#00C9FF;strokeColor=#00C9FF;" edge="1" parent="f0xie_PAi6Rzn-Jpi4XW-1">
          <mxGeometry width="50" height="50" relative="1" as="geometry">
            <mxPoint x="587" y="552" as="sourcePoint" />
            <mxPoint x="610" y="552" as="targetPoint" />
          </mxGeometry>
        </mxCell>
        <mxCell id="D6FQX8_cMb7jJ7mIvzqW-1" value="local mirroring datapath" style="text;html=1;align=left;verticalAlign=middle;resizable=0;points=[];autosize=1;strokeColor=none;fontSize=8;fontFamily=Google Sans;fontSource=https%3A%2F%2Ffonts.googleapis.com%2Fcss%3Ffamily%3DGoogle%2BSans;fontColor=#FFFFFF;" vertex="1" parent="f0xie_PAi6Rzn-Jpi4XW-1">
          <mxGeometry x="612" y="540" width="105" height="23" as="geometry" />
        </mxCell>
      </root>
    </mxGraphModel>
  </diagram>
  <diagram name="3" id="KGCbEH8kqVz6z26ikvjd">
    <mxGraphModel dx="576" dy="321" grid="0" gridSize="1" guides="1" tooltips="1" connect="1" arrows="1" fold="1" page="1" pageScale="1" pageWidth="3300" pageHeight="4681" background="#4D5766" math="0" shadow="0">
      <root>
        <mxCell id="y1Vc0FkWiAv1EJ8BpAuT-0" />
        <mxCell id="y1Vc0FkWiAv1EJ8BpAuT-1" parent="y1Vc0FkWiAv1EJ8BpAuT-0" />
        <mxCell id="y1Vc0FkWiAv1EJ8BpAuT-4" value="" style="rounded=0;whiteSpace=wrap;html=1;fontSize=12;align=center;fontFamily=Google Sans;fontSource=https%3A%2F%2Ffonts.googleapis.com%2Fcss%3Ffamily%3DGoogle%2BSans;fontColor=#FFFFFF;dashed=1;strokeColor=none;fillColor=#273142;" vertex="1" parent="y1Vc0FkWiAv1EJ8BpAuT-1">
          <mxGeometry x="688" y="342" width="241" height="137" as="geometry" />
        </mxCell>
        <mxCell id="y1Vc0FkWiAv1EJ8BpAuT-5" value="&lt;span style=&quot;font-size: 10px&quot;&gt;leaf2&lt;/span&gt;" style="rounded=0;whiteSpace=wrap;html=1;fontSize=10;align=center;fontFamily=Google Sans;fontSource=https%3A%2F%2Ffonts.googleapis.com%2Fcss%3Ffamily%3DGoogle%2BSans;dashed=1;strokeColor=none;fontColor=#FFFFFF;fillColor=#001135;" vertex="1" parent="y1Vc0FkWiAv1EJ8BpAuT-1">
          <mxGeometry x="688" y="328" width="241" height="14" as="geometry" />
        </mxCell>
        <mxCell id="y1Vc0FkWiAv1EJ8BpAuT-6" value="&lt;p style=&quot;line-height: 60%&quot;&gt;&lt;br&gt;&lt;/p&gt;" style="rounded=0;whiteSpace=wrap;html=1;fontSize=12;align=left;strokeColor=none;fontFamily=Google Sans;fontSource=https%3A%2F%2Ffonts.googleapis.com%2Fcss%3Ffamily%3DGoogle%2BSans;fontColor=#DDE9F5;fillColor=#BEC8D2;" vertex="1" parent="y1Vc0FkWiAv1EJ8BpAuT-1">
          <mxGeometry x="717.5" y="362.51" width="122.5" height="47" as="geometry" />
        </mxCell>
        <mxCell id="y1Vc0FkWiAv1EJ8BpAuT-7" value="mirror instance" style="rounded=0;whiteSpace=wrap;html=1;fontSize=8;align=center;fontFamily=Google Sans;fontSource=https%3A%2F%2Ffonts.googleapis.com%2Fcss%3Ffamily%3DGoogle%2BSans;fontColor=#FFFFFF;fillColor=#98A2AE;rotation=0;strokeColor=none;horizontal=0;verticalAlign=middle;spacing=0;" vertex="1" parent="y1Vc0FkWiAv1EJ8BpAuT-1">
          <mxGeometry x="697" y="362.51" width="20.5" height="47" as="geometry" />
        </mxCell>
        <mxCell id="y1Vc0FkWiAv1EJ8BpAuT-18" value="" style="rounded=1;whiteSpace=wrap;html=1;fillColor=none;dashed=1;dashPattern=1 2;" vertex="1" parent="y1Vc0FkWiAv1EJ8BpAuT-1">
          <mxGeometry x="726" y="376" width="48" height="27.61" as="geometry" />
        </mxCell>
        <mxCell id="y1Vc0FkWiAv1EJ8BpAuT-19" value="&lt;font style=&quot;font-size: 8px;&quot;&gt;source&lt;/font&gt;" style="text;html=1;align=center;verticalAlign=middle;resizable=0;points=[];autosize=1;fontSize=8;fontFamily=Google Sans;fontStyle=0;fontColor=#FFFFFF;fontSource=https%3A%2F%2Ffonts.googleapis.com%2Fcss%3Ffamily%3DGoogle%2BSans;" vertex="1" parent="y1Vc0FkWiAv1EJ8BpAuT-1">
          <mxGeometry x="728.5" y="358" width="43" height="22" as="geometry" />
        </mxCell>
        <mxCell id="y1Vc0FkWiAv1EJ8BpAuT-20" value="" style="rounded=1;whiteSpace=wrap;html=1;fillColor=none;dashed=1;dashPattern=1 2;" vertex="1" parent="y1Vc0FkWiAv1EJ8BpAuT-1">
          <mxGeometry x="784" y="376" width="48" height="27.61" as="geometry" />
        </mxCell>
        <mxCell id="y1Vc0FkWiAv1EJ8BpAuT-21" value="&lt;font style=&quot;font-size: 8px;&quot;&gt;dest&lt;/font&gt;" style="text;html=1;align=center;verticalAlign=middle;resizable=0;points=[];autosize=1;fontSize=8;fontFamily=Google Sans;fontStyle=0;fontColor=#FFFFFF;fontSource=https%3A%2F%2Ffonts.googleapis.com%2Fcss%3Ffamily%3DGoogle%2BSans;" vertex="1" parent="y1Vc0FkWiAv1EJ8BpAuT-1">
          <mxGeometry x="791" y="358" width="34" height="22" as="geometry" />
        </mxCell>
        <mxCell id="y1Vc0FkWiAv1EJ8BpAuT-22" value="mirror-acl" style="rounded=0;whiteSpace=wrap;html=1;fontSize=6;align=center;fontFamily=Google Sans;fontSource=https%3A%2F%2Ffonts.googleapis.com%2Fcss%3Ffamily%3DGoogle%2BSans;fontColor=#FFFFFF;fillColor=#98A2AE;rotation=90;strokeColor=none;horizontal=0;verticalAlign=middle;spacing=0;" vertex="1" parent="y1Vc0FkWiAv1EJ8BpAuT-1">
          <mxGeometry x="744" y="371.29" width="12" height="37.03" as="geometry" />
        </mxCell>
        <mxCell id="y1Vc0FkWiAv1EJ8BpAuT-23" value="L2oGRE" style="rounded=0;whiteSpace=wrap;html=1;fontSize=6;align=center;fontFamily=Google Sans;fontSource=https%3A%2F%2Ffonts.googleapis.com%2Fcss%3Ffamily%3DGoogle%2BSans;fontColor=#FFFFFF;fillColor=#98A2AE;rotation=90;strokeColor=none;horizontal=0;verticalAlign=middle;spacing=0;" vertex="1" parent="y1Vc0FkWiAv1EJ8BpAuT-1">
          <mxGeometry x="802" y="368.14" width="12" height="43.32" as="geometry" />
        </mxCell>
        <mxCell id="y1Vc0FkWiAv1EJ8BpAuT-29" value="" style="endArrow=oval;html=1;dashed=1;dashPattern=1 1;fontFamily=Fira Code;fontSource=https%3A%2F%2Ffonts.googleapis.com%2Fcss%3Ffamily%3DFira%2BCode;fontSize=6;startSize=2;endSize=2;strokeWidth=2;fillColor=#BEC8D2;opacity=80;fontColor=#00C9FF;strokeColor=#00C9FF;rounded=1;align=center;verticalAlign=middle;labelBackgroundColor=default;startArrow=oval;startFill=1;endFill=1;" edge="1" parent="y1Vc0FkWiAv1EJ8BpAuT-1">
          <mxGeometry width="50" height="50" relative="1" as="geometry">
            <mxPoint x="572" y="276" as="sourcePoint" />
            <mxPoint x="595" y="276" as="targetPoint" />
          </mxGeometry>
        </mxCell>
        <mxCell id="y1Vc0FkWiAv1EJ8BpAuT-30" value="remote mirroring datapath&lt;br&gt;(L2oGRE)" style="text;html=1;align=left;verticalAlign=middle;resizable=0;points=[];autosize=1;strokeColor=none;fontSize=8;fontFamily=Google Sans;fontSource=https%3A%2F%2Ffonts.googleapis.com%2Fcss%3Ffamily%3DGoogle%2BSans;fontColor=#FFFFFF;" vertex="1" parent="y1Vc0FkWiAv1EJ8BpAuT-1">
          <mxGeometry x="597" y="260" width="114" height="31" as="geometry" />
        </mxCell>
        <mxCell id="B6bVjtCcrt73ic1jCEXd-0" value="&lt;p style=&quot;line-height: 60%&quot;&gt;&lt;br&gt;&lt;/p&gt;" style="rounded=0;whiteSpace=wrap;html=1;fontSize=12;align=left;strokeColor=none;fontFamily=Google Sans;fontSource=https%3A%2F%2Ffonts.googleapis.com%2Fcss%3Ffamily%3DGoogle%2BSans;fontColor=#DDE9F5;fillColor=#BEC8D2;" vertex="1" parent="y1Vc0FkWiAv1EJ8BpAuT-1">
          <mxGeometry x="717.5" y="423.02" width="57.5" height="29" as="geometry" />
        </mxCell>
        <mxCell id="B6bVjtCcrt73ic1jCEXd-1" value="&lt;p style=&quot;line-height: 90%;&quot;&gt;acl&lt;br&gt;&lt;font color=&quot;#001135&quot; style=&quot;font-size: 5px;&quot;&gt;mirror-acl&lt;/font&gt;&lt;/p&gt;" style="rounded=0;whiteSpace=wrap;html=1;fontSize=8;align=center;fontFamily=Google Sans;fontSource=https%3A%2F%2Ffonts.googleapis.com%2Fcss%3Ffamily%3DGoogle%2BSans;fontColor=#FFFFFF;fillColor=#98A2AE;rotation=0;strokeColor=none;horizontal=0;verticalAlign=middle;spacing=0;" vertex="1" parent="y1Vc0FkWiAv1EJ8BpAuT-1">
          <mxGeometry x="697" y="423.02" width="20.5" height="29" as="geometry" />
        </mxCell>
        <mxCell id="B6bVjtCcrt73ic1jCEXd-2" value="match ICMP&lt;br&gt;on ethernet-1/1.0" style="rounded=0;whiteSpace=wrap;html=1;fontSize=6;align=center;fontFamily=Google Sans;fontSource=https%3A%2F%2Ffonts.googleapis.com%2Fcss%3Ffamily%3DGoogle%2BSans;fontColor=#FFFFFF;fillColor=#98A2AE;rotation=90;strokeColor=none;horizontal=0;verticalAlign=middle;spacing=0;" vertex="1" parent="y1Vc0FkWiAv1EJ8BpAuT-1">
          <mxGeometry x="736.07" y="412.19" width="20.75" height="47.41" as="geometry" />
        </mxCell>
        <mxCell id="hiwMo4MrQfzA4bE0_Jb6-0" value="&lt;p style=&quot;line-height: 60%&quot;&gt;&lt;br&gt;&lt;/p&gt;" style="rounded=0;whiteSpace=wrap;html=1;fontSize=12;align=left;strokeColor=none;fontFamily=Google Sans;fontSource=https%3A%2F%2Ffonts.googleapis.com%2Fcss%3Ffamily%3DGoogle%2BSans;fontColor=#DDE9F5;fillColor=#BEC8D2;" vertex="1" parent="y1Vc0FkWiAv1EJ8BpAuT-1">
          <mxGeometry x="871" y="362" width="53" height="48" as="geometry" />
        </mxCell>
        <mxCell id="hiwMo4MrQfzA4bE0_Jb6-1" value="&lt;p style=&quot;line-height: 90%;&quot;&gt;default&lt;br&gt;&lt;font style=&quot;font-size: 6px;&quot;&gt;net inst&lt;/font&gt;&lt;/p&gt;" style="rounded=0;whiteSpace=wrap;html=1;fontSize=8;align=center;fontFamily=Google Sans;fontSource=https%3A%2F%2Ffonts.googleapis.com%2Fcss%3Ffamily%3DGoogle%2BSans;fontColor=#FFFFFF;fillColor=#98A2AE;rotation=0;strokeColor=none;horizontal=0;verticalAlign=middle;spacing=0;" vertex="1" parent="y1Vc0FkWiAv1EJ8BpAuT-1">
          <mxGeometry x="854" y="362" width="17" height="48" as="geometry" />
        </mxCell>
        <mxCell id="B6bVjtCcrt73ic1jCEXd-3" value="ethernet-1/50" style="rounded=0;whiteSpace=wrap;html=1;fontSize=6;align=center;fontFamily=Google Sans;fontSource=https%3A%2F%2Ffonts.googleapis.com%2Fcss%3Ffamily%3DGoogle%2BSans;fontColor=#FFFFFF;fillColor=#98A2AE;rotation=90;strokeColor=none;horizontal=0;verticalAlign=middle;spacing=0;" vertex="1" parent="y1Vc0FkWiAv1EJ8BpAuT-1">
          <mxGeometry x="891" y="330" width="12" height="45.03" as="geometry" />
        </mxCell>
        <mxCell id="B6bVjtCcrt73ic1jCEXd-4" value="&lt;p style=&quot;line-height: 80%;&quot;&gt;&lt;font style=&quot;&quot;&gt;&lt;span style=&quot;font-size: 6px;&quot;&gt;subif 0&lt;/span&gt;&lt;br&gt;&lt;font style=&quot;&quot; color=&quot;#cfdded&quot;&gt;&lt;span style=&quot;font-size: 4px;&quot;&gt;(100.64.2.0)&lt;/span&gt;&lt;/font&gt;&lt;br&gt;&lt;/font&gt;&lt;/p&gt;" style="rounded=0;whiteSpace=wrap;html=1;fontSize=7;align=center;fontFamily=Google Sans;fontSource=https%3A%2F%2Ffonts.googleapis.com%2Fcss%3Ffamily%3DGoogle%2BSans;fontColor=#FFFFFF;fillColor=#98A2AE;rotation=90;strokeColor=none;horizontal=0;verticalAlign=middle;spacing=0;" vertex="1" parent="y1Vc0FkWiAv1EJ8BpAuT-1">
          <mxGeometry x="888" y="356" width="18" height="36" as="geometry" />
        </mxCell>
        <mxCell id="B6bVjtCcrt73ic1jCEXd-5" style="rounded=0;orthogonalLoop=1;jettySize=auto;html=1;startSize=6;endArrow=none;endFill=0;endSize=2;fontFamily=Google Sans;fontSize=8;strokeColor=#98A2AE;fontSource=https%3A%2F%2Ffonts.googleapis.com%2Fcss%3Ffamily%3DGoogle%2BSans;entryX=0;entryY=0.5;entryDx=0;entryDy=0;exitX=1;exitY=0.5;exitDx=0;exitDy=0;dashed=1;" edge="1" parent="y1Vc0FkWiAv1EJ8BpAuT-1" source="B6bVjtCcrt73ic1jCEXd-3" target="B6bVjtCcrt73ic1jCEXd-4">
          <mxGeometry relative="1" as="geometry">
            <mxPoint x="944.5" y="401" as="sourcePoint" />
            <mxPoint x="944.5000000000001" y="377" as="targetPoint" />
            <Array as="points" />
          </mxGeometry>
        </mxCell>
        <mxCell id="YKqucR7BzkE8cTxtBz11-0" value="system0.0&lt;br style=&quot;font-size: 6px;&quot;&gt;10.0.1.2" style="rounded=0;whiteSpace=wrap;html=1;fontSize=6;align=center;fontFamily=Google Sans;fontSource=https%3A%2F%2Ffonts.googleapis.com%2Fcss%3Ffamily%3DGoogle%2BSans;fontColor=#FFFFFF;rotation=90;strokeColor=none;horizontal=0;verticalAlign=middle;spacing=0;fillColor=#4BDD33;" vertex="1" parent="y1Vc0FkWiAv1EJ8BpAuT-1">
          <mxGeometry x="886.69" y="379" width="20.62" height="35" as="geometry" />
        </mxCell>
        <mxCell id="y1Vc0FkWiAv1EJ8BpAuT-2" value="" style="rounded=0;whiteSpace=wrap;html=1;fontSize=12;align=center;fontFamily=Manrope;fontSource=https%3A%2F%2Ffonts.googleapis.com%2Fcss%3Ffamily%3DManrope;fontColor=#FFFFFF;dashed=1;strokeColor=none;fillColor=#DDE9F5;" vertex="1" parent="y1Vc0FkWiAv1EJ8BpAuT-1">
          <mxGeometry x="746" y="483" width="125" height="37" as="geometry" />
        </mxCell>
        <mxCell id="y1Vc0FkWiAv1EJ8BpAuT-3" value="&lt;span style=&quot;font-size: 10px;&quot;&gt;client2&lt;/span&gt;" style="rounded=0;whiteSpace=wrap;html=1;fontSize=10;align=center;fontFamily=Google Sans;fontSource=https%3A%2F%2Ffonts.googleapis.com%2Fcss%3Ffamily%3DGoogle%2BSans;dashed=1;strokeColor=none;fillColor=#98A2AE;fontColor=#FFFFFF;" vertex="1" parent="y1Vc0FkWiAv1EJ8BpAuT-1">
          <mxGeometry x="746" y="520" width="125" height="14" as="geometry" />
        </mxCell>
        <mxCell id="y1Vc0FkWiAv1EJ8BpAuT-8" value="ethernet-1/1" style="rounded=0;whiteSpace=wrap;html=1;fontSize=6;align=center;fontFamily=Google Sans;fontSource=https%3A%2F%2Ffonts.googleapis.com%2Fcss%3Ffamily%3DGoogle%2BSans;fontColor=#FFFFFF;fillColor=#98A2AE;rotation=90;strokeColor=none;horizontal=0;verticalAlign=middle;spacing=0;" vertex="1" parent="y1Vc0FkWiAv1EJ8BpAuT-1">
          <mxGeometry x="804" y="445.96" width="12" height="45.03" as="geometry" />
        </mxCell>
        <mxCell id="y1Vc0FkWiAv1EJ8BpAuT-10" style="rounded=0;orthogonalLoop=1;jettySize=auto;html=1;startSize=6;endArrow=none;endFill=0;endSize=2;fontFamily=Google Sans;fontSize=8;strokeColor=#98A2AE;fontSource=https%3A%2F%2Ffonts.googleapis.com%2Fcss%3Ffamily%3DGoogle%2BSans;entryX=0.93;entryY=0.514;entryDx=0;entryDy=0;exitX=0;exitY=0.5;exitDx=0;exitDy=0;entryPerimeter=0;dashed=1;" edge="1" parent="y1Vc0FkWiAv1EJ8BpAuT-1" source="y1Vc0FkWiAv1EJ8BpAuT-8" target="y1Vc0FkWiAv1EJ8BpAuT-9">
          <mxGeometry relative="1" as="geometry">
            <mxPoint x="838" y="484" as="sourcePoint" />
            <mxPoint x="838.0000000000001" y="460" as="targetPoint" />
            <Array as="points" />
          </mxGeometry>
        </mxCell>
        <mxCell id="y1Vc0FkWiAv1EJ8BpAuT-11" style="rounded=0;orthogonalLoop=1;jettySize=auto;html=1;startSize=2;endArrow=oval;endFill=1;endSize=2;fontFamily=Manrope;fontSize=8;strokeColor=#98A2AE;fontSource=https%3A%2F%2Ffonts.googleapis.com%2Fcss%3Ffamily%3DManrope;entryX=0.434;entryY=0.013;entryDx=0;entryDy=0;exitX=1;exitY=0.5;exitDx=0;exitDy=0;entryPerimeter=0;startArrow=oval;startFill=1;" edge="1" parent="y1Vc0FkWiAv1EJ8BpAuT-1" source="y1Vc0FkWiAv1EJ8BpAuT-8" target="y1Vc0FkWiAv1EJ8BpAuT-13">
          <mxGeometry relative="1" as="geometry">
            <mxPoint x="812.495" y="447.6250000000001" as="sourcePoint" />
            <mxPoint x="812.2600000000001" y="431.735" as="targetPoint" />
            <Array as="points" />
          </mxGeometry>
        </mxCell>
        <mxCell id="y1Vc0FkWiAv1EJ8BpAuT-12" value="" style="group;spacing=0;" vertex="1" connectable="0" parent="y1Vc0FkWiAv1EJ8BpAuT-1">
          <mxGeometry x="752" y="487" width="139" height="28" as="geometry" />
        </mxCell>
        <mxCell id="y1Vc0FkWiAv1EJ8BpAuT-13" value="&lt;p style=&quot;line-height: 60%&quot;&gt;&lt;font data-font-src=&quot;https://fonts.googleapis.com/css?family=Google+Sans&quot; face=&quot;Google Sans&quot; style=&quot;line-height: 8px; font-size: 7px;&quot; color=&quot;#98a2ae&quot;&gt;IPv4:&lt;/font&gt;&lt;span style=&quot;font-size: 8px ; color: rgb(255 , 255 , 255)&quot;&gt;&amp;nbsp;&lt;/span&gt;&lt;font data-font-src=&quot;https://fonts.googleapis.com/css?family=Fira+Code&quot; style=&quot;&quot;&gt;&lt;font style=&quot;font-family: &amp;quot;Fira Code&amp;quot;; font-size: 7px;&quot; data-font-src=&quot;https://fonts.googleapis.com/css?family=JetBrains+Mono&quot; color=&quot;#ffffff&quot;&gt;172.17.0.2/24&lt;/font&gt;&lt;br&gt;&lt;span style=&quot;color: rgb(255, 255, 255);&quot;&gt;&lt;font face=&quot;Google Sans&quot; style=&quot;font-size: 7px;&quot; color=&quot;#98a2ae&quot;&gt;MAC:&lt;/font&gt;&lt;font style=&quot;font-size: 8px;&quot; face=&quot;manrope&quot;&gt;&amp;nbsp;&lt;/font&gt;&lt;/span&gt;&lt;font style=&quot;font-family: &amp;quot;Fira Code&amp;quot;; font-size: 7px;&quot; face=&quot;Fira Code&quot; data-font-src=&quot;https://fonts.googleapis.com/css?family=Fira+Code&quot; color=&quot;#ffffff&quot;&gt;00:C1:AB:00:00:02&lt;/font&gt;&lt;/font&gt;&lt;/p&gt;" style="rounded=0;whiteSpace=wrap;html=1;fontSize=12;align=left;strokeColor=none;fontFamily=Manrope;fontSource=https%3A%2F%2Ffonts.googleapis.com%2Fcss%3Ffamily%3DManrope;fontColor=#DDE9F5;fillColor=#BEC8D2;" vertex="1" parent="y1Vc0FkWiAv1EJ8BpAuT-12">
          <mxGeometry x="16.5" width="96.5" height="28" as="geometry" />
        </mxCell>
        <mxCell id="y1Vc0FkWiAv1EJ8BpAuT-14" value="eth1" style="rounded=0;whiteSpace=wrap;html=1;fontSize=8;align=center;fontFamily=Google Sans;fontSource=https%3A%2F%2Ffonts.googleapis.com%2Fcss%3Ffamily%3DGoogle%2BSans;fontColor=#FFFFFF;fillColor=#98A2AE;rotation=0;strokeColor=none;horizontal=0;verticalAlign=middle;spacing=0;" vertex="1" parent="y1Vc0FkWiAv1EJ8BpAuT-12">
          <mxGeometry width="16.5" height="28" as="geometry" />
        </mxCell>
        <mxCell id="y1Vc0FkWiAv1EJ8BpAuT-9" value="&lt;font style=&quot;&quot;&gt;&lt;span style=&quot;font-size: 6px;&quot;&gt;subif 0&lt;/span&gt;&lt;br&gt;&lt;font style=&quot;font-size: 4px;&quot; color=&quot;#cfdded&quot;&gt;(bridged)&lt;/font&gt;&lt;br&gt;&lt;/font&gt;" style="rounded=0;whiteSpace=wrap;html=1;fontSize=7;align=center;fontFamily=Google Sans;fontSource=https%3A%2F%2Ffonts.googleapis.com%2Fcss%3Ffamily%3DGoogle%2BSans;fontColor=#FFFFFF;fillColor=#98A2AE;rotation=90;strokeColor=none;horizontal=0;verticalAlign=middle;spacing=0;" vertex="1" parent="y1Vc0FkWiAv1EJ8BpAuT-1">
          <mxGeometry x="801.5" y="427" width="18" height="36" as="geometry" />
        </mxCell>
        <mxCell id="HFq8T-IzUrVuGSb2jBXw-0" value="&lt;font style=&quot;font-size: 10px&quot; color=&quot;#001135&quot;&gt;IP Fabric&lt;/font&gt;" style="html=1;fillColor=#f5f5f5;strokeColor=#b1b3b3;gradientDirection=north;strokeWidth=1;shape=mxgraph.networks.cloud;fontColor=#ffffff;align=center;perimeterSpacing=0;fontFamily=Google Sans;fontSource=https%3A%2F%2Ffonts.googleapis.com%2Fcss%3Ffamily%3DGoogle%2BSans;" vertex="1" parent="y1Vc0FkWiAv1EJ8BpAuT-1">
          <mxGeometry x="780" y="271" width="76" height="34" as="geometry" />
        </mxCell>
        <mxCell id="lQWstRW8wMBZtA2CkVSL-0" value="" style="rounded=0;whiteSpace=wrap;html=1;fontSize=12;align=center;fontFamily=Google Sans;fontSource=https%3A%2F%2Ffonts.googleapis.com%2Fcss%3Ffamily%3DGoogle%2BSans;fontColor=#FFFFFF;dashed=1;strokeColor=none;fillColor=#273142;" vertex="1" parent="y1Vc0FkWiAv1EJ8BpAuT-1">
          <mxGeometry x="702" y="172" width="179" height="80" as="geometry" />
        </mxCell>
        <mxCell id="lQWstRW8wMBZtA2CkVSL-1" value="&lt;span style=&quot;font-size: 10px&quot;&gt;spine1&lt;/span&gt;" style="rounded=0;whiteSpace=wrap;html=1;fontSize=10;align=center;fontFamily=Google Sans;fontSource=https%3A%2F%2Ffonts.googleapis.com%2Fcss%3Ffamily%3DGoogle%2BSans;dashed=1;strokeColor=none;fontColor=#FFFFFF;fillColor=#001135;" vertex="1" parent="y1Vc0FkWiAv1EJ8BpAuT-1">
          <mxGeometry x="702" y="158.48000000000002" width="179" height="14" as="geometry" />
        </mxCell>
        <mxCell id="JnVVthCUbFgU1etnoCT8-0" value="&lt;p style=&quot;line-height: 60%&quot;&gt;&lt;br&gt;&lt;/p&gt;" style="rounded=0;whiteSpace=wrap;html=1;fontSize=12;align=left;strokeColor=none;fontFamily=Google Sans;fontSource=https%3A%2F%2Ffonts.googleapis.com%2Fcss%3Ffamily%3DGoogle%2BSans;fontColor=#DDE9F5;fillColor=#BEC8D2;" vertex="1" parent="y1Vc0FkWiAv1EJ8BpAuT-1">
          <mxGeometry x="770" y="183" width="55" height="48" as="geometry" />
        </mxCell>
        <mxCell id="JnVVthCUbFgU1etnoCT8-1" value="&lt;p style=&quot;line-height: 90%;&quot;&gt;default&lt;br&gt;&lt;font style=&quot;font-size: 6px;&quot;&gt;net inst&lt;/font&gt;&lt;/p&gt;" style="rounded=0;whiteSpace=wrap;html=1;fontSize=8;align=center;fontFamily=Google Sans;fontSource=https%3A%2F%2Ffonts.googleapis.com%2Fcss%3Ffamily%3DGoogle%2BSans;fontColor=#FFFFFF;fillColor=#98A2AE;rotation=0;strokeColor=none;horizontal=0;verticalAlign=middle;spacing=0;" vertex="1" parent="y1Vc0FkWiAv1EJ8BpAuT-1">
          <mxGeometry x="825" y="183" width="17" height="48" as="geometry" />
        </mxCell>
        <mxCell id="JnVVthCUbFgU1etnoCT8-2" value="ethernet-1/10" style="rounded=0;whiteSpace=wrap;html=1;fontSize=6;align=center;fontFamily=Google Sans;fontSource=https%3A%2F%2Ffonts.googleapis.com%2Fcss%3Ffamily%3DGoogle%2BSans;fontColor=#FFFFFF;fillColor=#98A2AE;rotation=90;strokeColor=none;horizontal=0;verticalAlign=middle;spacing=0;" vertex="1" parent="y1Vc0FkWiAv1EJ8BpAuT-1">
          <mxGeometry x="721" y="172.48" width="12" height="45.03" as="geometry" />
        </mxCell>
        <mxCell id="JnVVthCUbFgU1etnoCT8-3" value="&lt;p style=&quot;line-height: 80%;&quot;&gt;&lt;font style=&quot;&quot;&gt;&lt;span style=&quot;font-size: 6px;&quot;&gt;subif 0&lt;/span&gt;&lt;br&gt;&lt;font color=&quot;#cfdded&quot;&gt;&lt;span style=&quot;font-size: 4px;&quot;&gt;(192.168.1.1)&lt;/span&gt;&lt;/font&gt;&lt;br&gt;&lt;/font&gt;&lt;/p&gt;" style="rounded=0;whiteSpace=wrap;html=1;fontSize=7;align=center;fontFamily=Google Sans;fontSource=https%3A%2F%2Ffonts.googleapis.com%2Fcss%3Ffamily%3DGoogle%2BSans;fontColor=#FFFFFF;fillColor=#98A2AE;rotation=90;strokeColor=none;horizontal=0;verticalAlign=middle;spacing=0;" vertex="1" parent="y1Vc0FkWiAv1EJ8BpAuT-1">
          <mxGeometry x="787" y="177" width="18" height="36" as="geometry" />
        </mxCell>
        <mxCell id="JnVVthCUbFgU1etnoCT8-4" style="rounded=0;orthogonalLoop=1;jettySize=auto;html=1;startSize=6;endArrow=none;endFill=0;endSize=2;fontFamily=Google Sans;fontSize=8;strokeColor=#98A2AE;fontSource=https%3A%2F%2Ffonts.googleapis.com%2Fcss%3Ffamily%3DGoogle%2BSans;entryX=0.5;entryY=1;entryDx=0;entryDy=0;exitX=0.5;exitY=0;exitDx=0;exitDy=0;dashed=1;" edge="1" parent="y1Vc0FkWiAv1EJ8BpAuT-1" source="JnVVthCUbFgU1etnoCT8-2" target="JnVVthCUbFgU1etnoCT8-3">
          <mxGeometry relative="1" as="geometry">
            <mxPoint x="843.5" y="222" as="sourcePoint" />
            <mxPoint x="843.5000000000001" y="198" as="targetPoint" />
            <Array as="points" />
          </mxGeometry>
        </mxCell>
        <mxCell id="iXjyq-Updtc46zLIwI_y-0" value="ethernet-1/2" style="rounded=0;whiteSpace=wrap;html=1;fontSize=6;align=center;fontFamily=Google Sans;fontSource=https%3A%2F%2Ffonts.googleapis.com%2Fcss%3Ffamily%3DGoogle%2BSans;fontColor=#FFFFFF;fillColor=#98A2AE;rotation=90;strokeColor=none;horizontal=0;verticalAlign=middle;spacing=0;" vertex="1" parent="y1Vc0FkWiAv1EJ8BpAuT-1">
          <mxGeometry x="790.5" y="219.95999999999998" width="12" height="45.03" as="geometry" />
        </mxCell>
        <mxCell id="iXjyq-Updtc46zLIwI_y-1" style="rounded=0;orthogonalLoop=1;jettySize=auto;html=1;startSize=6;endArrow=none;endFill=0;endSize=2;fontFamily=Google Sans;fontSize=8;strokeColor=#98A2AE;fontSource=https%3A%2F%2Ffonts.googleapis.com%2Fcss%3Ffamily%3DGoogle%2BSans;entryX=0.93;entryY=0.514;entryDx=0;entryDy=0;exitX=0;exitY=0.5;exitDx=0;exitDy=0;entryPerimeter=0;dashed=1;" edge="1" parent="y1Vc0FkWiAv1EJ8BpAuT-1" source="iXjyq-Updtc46zLIwI_y-0" target="iXjyq-Updtc46zLIwI_y-3">
          <mxGeometry relative="1" as="geometry">
            <mxPoint x="824.5" y="258" as="sourcePoint" />
            <mxPoint x="824.5000000000001" y="234" as="targetPoint" />
            <Array as="points" />
          </mxGeometry>
        </mxCell>
        <mxCell id="iXjyq-Updtc46zLIwI_y-2" style="rounded=0;orthogonalLoop=1;jettySize=auto;html=1;startSize=2;endArrow=oval;endFill=1;endSize=2;fontFamily=Manrope;fontSize=8;strokeColor=#98A2AE;fontSource=https%3A%2F%2Ffonts.googleapis.com%2Fcss%3Ffamily%3DManrope;entryX=0.567;entryY=0.066;entryDx=0;entryDy=0;exitX=1;exitY=0.5;exitDx=0;exitDy=0;entryPerimeter=0;startArrow=oval;startFill=1;" edge="1" parent="y1Vc0FkWiAv1EJ8BpAuT-1" source="iXjyq-Updtc46zLIwI_y-0" target="HFq8T-IzUrVuGSb2jBXw-0">
          <mxGeometry relative="1" as="geometry">
            <mxPoint x="798.995" y="221.6250000000001" as="sourcePoint" />
            <mxPoint x="796.5" y="261" as="targetPoint" />
            <Array as="points">
              <mxPoint x="797" y="265" />
            </Array>
          </mxGeometry>
        </mxCell>
        <mxCell id="iXjyq-Updtc46zLIwI_y-3" value="&lt;p style=&quot;line-height: 80%;&quot;&gt;&lt;font style=&quot;&quot;&gt;&lt;span style=&quot;font-size: 6px;&quot;&gt;subif 0&lt;/span&gt;&lt;br&gt;&lt;font style=&quot;&quot; color=&quot;#cfdded&quot;&gt;&lt;span style=&quot;font-size: 4px;&quot;&gt;(100.64.2.1)&lt;/span&gt;&lt;/font&gt;&lt;br&gt;&lt;/font&gt;&lt;/p&gt;" style="rounded=0;whiteSpace=wrap;html=1;fontSize=7;align=center;fontFamily=Google Sans;fontSource=https%3A%2F%2Ffonts.googleapis.com%2Fcss%3Ffamily%3DGoogle%2BSans;fontColor=#FFFFFF;fillColor=#98A2AE;rotation=90;strokeColor=none;horizontal=0;verticalAlign=middle;spacing=0;" vertex="1" parent="y1Vc0FkWiAv1EJ8BpAuT-1">
          <mxGeometry x="788" y="201" width="18" height="36" as="geometry" />
        </mxCell>
        <mxCell id="NBgthnICdY2BjWd3wX07-0" value="" style="rounded=0;whiteSpace=wrap;html=1;fontSize=12;align=center;fontFamily=Manrope;fontSource=https%3A%2F%2Ffonts.googleapis.com%2Fcss%3Ffamily%3DManrope;fontColor=#FFFFFF;dashed=1;strokeColor=none;fillColor=#DDE9F5;" vertex="1" parent="y1Vc0FkWiAv1EJ8BpAuT-1">
          <mxGeometry x="556" y="177" width="125" height="37" as="geometry" />
        </mxCell>
        <mxCell id="NBgthnICdY2BjWd3wX07-1" value="&lt;span style=&quot;font-size: 10px;&quot;&gt;mirror2&lt;/span&gt;" style="rounded=0;whiteSpace=wrap;html=1;fontSize=10;align=center;fontFamily=Google Sans;fontSource=https%3A%2F%2Ffonts.googleapis.com%2Fcss%3Ffamily%3DGoogle%2BSans;dashed=1;strokeColor=none;fillColor=#98A2AE;fontColor=#FFFFFF;" vertex="1" parent="y1Vc0FkWiAv1EJ8BpAuT-1">
          <mxGeometry x="556" y="214" width="125" height="14" as="geometry" />
        </mxCell>
        <mxCell id="NBgthnICdY2BjWd3wX07-2" value="&lt;p style=&quot;line-height: 60%&quot;&gt;&lt;font data-font-src=&quot;https://fonts.googleapis.com/css?family=Google+Sans&quot; face=&quot;Google Sans&quot; style=&quot;line-height: 8px; font-size: 7px;&quot; color=&quot;#98a2ae&quot;&gt;IPv4:&lt;/font&gt;&lt;span style=&quot;font-size: 8px ; color: rgb(255 , 255 , 255)&quot;&gt;&amp;nbsp;&lt;/span&gt;&lt;font data-font-src=&quot;https://fonts.googleapis.com/css?family=Fira+Code&quot; style=&quot;&quot;&gt;&lt;font style=&quot;font-family: &amp;quot;Fira Code&amp;quot;; font-size: 7px;&quot; data-font-src=&quot;https://fonts.googleapis.com/css?family=JetBrains+Mono&quot; color=&quot;#ffffff&quot;&gt;192.168.1.10/24&lt;/font&gt;&lt;br&gt;&lt;/font&gt;&lt;/p&gt;" style="rounded=0;whiteSpace=wrap;html=1;fontSize=12;align=left;strokeColor=none;fontFamily=Manrope;fontSource=https%3A%2F%2Ffonts.googleapis.com%2Fcss%3Ffamily%3DManrope;fontColor=#DDE9F5;fillColor=#BEC8D2;" vertex="1" parent="y1Vc0FkWiAv1EJ8BpAuT-1">
          <mxGeometry x="578.5" y="181" width="96.5" height="28" as="geometry" />
        </mxCell>
        <mxCell id="NBgthnICdY2BjWd3wX07-3" value="eth1" style="rounded=0;whiteSpace=wrap;html=1;fontSize=8;align=center;fontFamily=Google Sans;fontSource=https%3A%2F%2Ffonts.googleapis.com%2Fcss%3Ffamily%3DGoogle%2BSans;fontColor=#FFFFFF;fillColor=#98A2AE;rotation=0;strokeColor=none;horizontal=0;verticalAlign=middle;spacing=0;" vertex="1" parent="y1Vc0FkWiAv1EJ8BpAuT-1">
          <mxGeometry x="562" y="181" width="16.5" height="28" as="geometry" />
        </mxCell>
        <mxCell id="y1Vc0FkWiAv1EJ8BpAuT-27" style="rounded=0;orthogonalLoop=1;jettySize=auto;html=1;startSize=2;endArrow=oval;endFill=1;endSize=2;fontFamily=Manrope;fontSize=8;strokeColor=#98A2AE;fontSource=https%3A%2F%2Ffonts.googleapis.com%2Fcss%3Ffamily%3DManrope;entryX=1;entryY=0.5;entryDx=0;entryDy=0;exitX=0.5;exitY=1;exitDx=0;exitDy=0;startArrow=oval;startFill=1;" edge="1" parent="y1Vc0FkWiAv1EJ8BpAuT-1" source="JnVVthCUbFgU1etnoCT8-2" target="NBgthnICdY2BjWd3wX07-0">
          <mxGeometry relative="1" as="geometry">
            <mxPoint x="695.0000000000002" y="273.0050000000001" as="sourcePoint" />
            <mxPoint x="792" y="329" as="targetPoint" />
            <Array as="points" />
          </mxGeometry>
        </mxCell>
        <mxCell id="NBgthnICdY2BjWd3wX07-4" style="rounded=0;orthogonalLoop=1;jettySize=auto;html=1;startSize=2;endArrow=oval;endFill=1;endSize=2;fontFamily=Manrope;fontSize=8;strokeColor=#98A2AE;fontSource=https%3A%2F%2Ffonts.googleapis.com%2Fcss%3Ffamily%3DManrope;entryX=0;entryY=0.5;entryDx=0;entryDy=0;exitX=0.973;exitY=0.734;exitDx=0;exitDy=0;startArrow=oval;startFill=1;exitPerimeter=0;" edge="1" parent="y1Vc0FkWiAv1EJ8BpAuT-1" source="HFq8T-IzUrVuGSb2jBXw-0" target="B6bVjtCcrt73ic1jCEXd-3">
          <mxGeometry relative="1" as="geometry">
            <mxPoint x="798" y="249" as="sourcePoint" />
            <mxPoint x="855" y="272" as="targetPoint" />
            <Array as="points">
              <mxPoint x="897" y="313" />
            </Array>
          </mxGeometry>
        </mxCell>
        <mxCell id="NBgthnICdY2BjWd3wX07-5" value="" style="endArrow=oval;html=1;dashed=1;dashPattern=1 1;fontFamily=Fira Code;fontSource=https%3A%2F%2Ffonts.googleapis.com%2Fcss%3Ffamily%3DFira%2BCode;fontSize=6;startSize=2;endSize=2;strokeWidth=2;fillColor=#BEC8D2;opacity=80;fontColor=#00C9FF;strokeColor=#00C9FF;entryX=0;entryY=0.5;entryDx=0;entryDy=0;exitX=1;exitY=0.5;exitDx=0;exitDy=0;startArrow=oval;startFill=1;endFill=1;" edge="1" parent="y1Vc0FkWiAv1EJ8BpAuT-1" source="NBgthnICdY2BjWd3wX07-2" target="YKqucR7BzkE8cTxtBz11-0">
          <mxGeometry width="50" height="50" relative="1" as="geometry">
            <mxPoint x="596" y="299" as="sourcePoint" />
            <mxPoint x="619" y="299" as="targetPoint" />
            <Array as="points">
              <mxPoint x="698" y="200" />
              <mxPoint x="812" y="202" />
              <mxPoint x="815" y="259" />
              <mxPoint x="841" y="273" />
              <mxPoint x="846" y="301" />
              <mxPoint x="881" y="319" />
              <mxPoint x="884" y="381" />
            </Array>
          </mxGeometry>
        </mxCell>
        <mxCell id="NBgthnICdY2BjWd3wX07-6" value="" style="endArrow=diamond;html=1;dashed=1;dashPattern=1 1;fontFamily=Fira Code;fontSource=https%3A%2F%2Ffonts.googleapis.com%2Fcss%3Ffamily%3DFira%2BCode;fontSize=6;startSize=1;endSize=1;strokeWidth=2;fillColor=#BEC8D2;opacity=80;fontColor=#00C9FF;strokeColor=#FF9910;exitX=0.5;exitY=0;exitDx=0;exitDy=0;entryX=1;entryY=0.5;entryDx=0;entryDy=0;startArrow=diamond;startFill=1;endFill=1;" edge="1" parent="y1Vc0FkWiAv1EJ8BpAuT-1" source="y1Vc0FkWiAv1EJ8BpAuT-9" target="YKqucR7BzkE8cTxtBz11-0">
          <mxGeometry width="50" height="50" relative="1" as="geometry">
            <mxPoint x="840" y="445.96000000000004" as="sourcePoint" />
            <mxPoint x="863" y="445.96000000000004" as="targetPoint" />
            <Array as="points">
              <mxPoint x="897" y="441" />
            </Array>
          </mxGeometry>
        </mxCell>
        <mxCell id="NBgthnICdY2BjWd3wX07-7" value="" style="endArrow=diamond;html=1;dashed=1;dashPattern=1 1;fontFamily=Fira Code;fontSource=https%3A%2F%2Ffonts.googleapis.com%2Fcss%3Ffamily%3DFira%2BCode;fontSize=6;startSize=1;endSize=1;strokeWidth=2;fillColor=#BEC8D2;opacity=80;fontColor=#00C9FF;strokeColor=#FF9910;rounded=1;align=center;verticalAlign=middle;labelBackgroundColor=default;startArrow=diamond;startFill=1;endFill=1;" edge="1" parent="y1Vc0FkWiAv1EJ8BpAuT-1">
          <mxGeometry width="50" height="50" relative="1" as="geometry">
            <mxPoint x="569" y="305" as="sourcePoint" />
            <mxPoint x="595" y="305" as="targetPoint" />
          </mxGeometry>
        </mxCell>
        <mxCell id="NBgthnICdY2BjWd3wX07-8" value="packet mirror" style="text;html=1;align=left;verticalAlign=middle;resizable=0;points=[];autosize=1;strokeColor=none;fontSize=8;fontFamily=Google Sans;fontSource=https%3A%2F%2Ffonts.googleapis.com%2Fcss%3Ffamily%3DGoogle%2BSans;fontColor=#FFFFFF;" vertex="1" parent="y1Vc0FkWiAv1EJ8BpAuT-1">
          <mxGeometry x="596" y="294" width="67" height="22" as="geometry" />
        </mxCell>
      </root>
    </mxGraphModel>
  </diagram>
</mxfile>
